<?xml version="1.0" encoding="UTF-8" standalone="no"?>
<svg
   version="1.1"
   id="Layer_1"
   x="0px"
   y="0px"
   width="250.02411"
   viewBox="0 0 250.02411 250.62617"
   enable-background="new 0 0 1542 340"
   xml:space="preserve"
   sodipodi:docname="favicon.svg"
   inkscape:version="1.3.1 (9b9bdc1480, 2023-11-25, custom)"
   height="250.62617"
   xmlns:inkscape="http://www.inkscape.org/namespaces/inkscape"
   xmlns:sodipodi="http://sodipodi.sourceforge.net/DTD/sodipodi-0.dtd"
   xmlns="http://www.w3.org/2000/svg"
   xmlns:svg="http://www.w3.org/2000/svg"><defs
   id="defs97" /><sodipodi:namedview
   id="namedview97"
   pagecolor="#505050"
   bordercolor="#ffffff"
   borderopacity="1"
   inkscape:showpageshadow="0"
   inkscape:pageopacity="0"
   inkscape:pagecheckerboard="1"
   inkscape:deskcolor="#505050"
   inkscape:zoom="3.2466382"
   inkscape:cx="105.95576"
   inkscape:cy="161.70573"
   inkscape:window-width="1920"
   inkscape:window-height="1017"
   inkscape:window-x="0"
   inkscape:window-y="26"
   inkscape:window-maximized="1"
   inkscape:current-layer="Layer_1" />


<path
   fill="#313364"
   opacity="1"
   stroke="none"
   d="m 225.40274,96.160922 c 1.29528,0.523212 2.59056,1.046414 4.38361,1.926828 1.24952,0.504157 2.00131,0.651102 2.75308,0.798047 0.92379,0.234759 1.84762,0.469548 3.2694,1.085501 1.26707,0.486682 2.0361,0.592202 2.80515,0.697722 2.15846,1.29505 4.3169,2.5901 6.63504,4.58555 0.50029,9.32455 0.71573,17.95621 1.23341,26.5697 0.26561,4.41933 -1.71398,6.81382 -5.68198,8.14862 -4.08974,1.37573 -8.12134,2.92434 -12.17833,4.39736 -3.06926,1.11436 -5.03147,2.84058 -6.12357,6.32722 -2.12394,6.78096 -5.26468,13.23738 -7.61005,19.95881 -0.68027,1.94948 -0.7059,4.58778 0.045,6.48401 1.76834,4.46549 4.23773,8.64899 6.322,12.99528 1.44178,3.00656 2.77873,6.09352 -0.18989,9.27353 -2.51127,2.61977 -4.69508,5.16283 -7.15729,7.86852 -1.72683,1.74099 -3.1753,3.31934 -4.94077,5.00322 -2.44525,2.36733 -4.57347,4.62917 -7.14053,6.93417 -3.4744,-0.52349 -6.6054,-0.79329 -9.52169,-1.73094 -3.74715,-1.20481 -7.32191,-2.94579 -11.06202,-4.78435 -1.39557,-0.45979 -2.70004,-0.59107 -4.32957,-0.68307 -1.08169,0.41299 -1.83833,0.78672 -2.96088,1.15841 -3.48134,1.67341 -6.59678,3.3489 -10.01475,5.07301 -1.0462,0.38218 -1.78988,0.71574 -2.88504,1.00509 -1.58643,0.80075 -2.8214,1.64568 -4.3933,2.53383 -1.00777,0.14938 -1.6786,0.25558 -2.73261,0.31889 -4.38384,0.3152 -3.9688,3.52394 -4.51668,6.54456 -1.40704,4.47269 -3.08231,8.5127 -3.88061,12.71914 -0.71639,3.77477 -2.70459,5.0238 -6.61496,4.85204 -5.9748,0.0486 -11.47506,0.19901 -17.21757,0.33058 -0.56723,-0.0275 -0.88999,-0.005 -1.65847,-0.10997 -2.00043,-0.0291 -3.55296,0.10084 -5.51561,0.16631 -1.50853,-0.0261 -2.60694,0.0123 -3.70532,0.0507 -1.88662,-3.55104 -3.83534,-7.07109 -5.63168,-10.66723 -0.80734,-1.61629 -1.31013,-3.38471 -1.99173,-5.81314 -1.11746,-4.30986 -3.282245,-6.48438 -7.033258,-7.68357 -6.602633,-2.11076 -12.939763,-5.05596 -19.550614,-7.13487 -2.396065,-0.75352 -5.534115,-0.73026 -7.848236,0.17682 -4.440034,1.74038 -8.516748,4.39731 -12.775588,6.61367 -3.162823,1.64599 -5.928402,1.21442 -8.569329,-1.37397 -2.190706,-2.14713 -4.758695,-3.90935 -7.159542,-5.84211 -3.315408,-3.2768 -6.594998,-6.59095 -9.956774,-9.81946 -3.095609,-2.97293 -3.304694,-6.28673 -1.567439,-10.0134 2.035462,-4.36637 4.236574,-8.68709 5.816698,-13.21908 0.662348,-1.89972 0.468079,-4.51425 -0.297303,-6.41754 -2.289645,-5.69372 -5.224818,-11.12587 -7.571202,-16.79942 -1.503556,-3.63559 -3.535078,-6.10069 -7.53473,-7.21014 -4.455835,-1.236 -8.769382,-3.04491 -13.0518977,-4.82775 -3.7653754,-1.56756 -5.48650735,-4.68051 -5.59337201,-8.6979 -0.21224295,-7.97878 -0.73227861,-15.97311 -0.37656514,-23.92754 0.0954807,-2.13513 2.46003865,-4.97842 4.53155405,-6.05149 4.6974898,-2.43334 9.9506068,-3.77036 14.7858978,-5.9742 1.702775,-0.77608 3.418924,-2.539205 4.143559,-4.265324 2.823909,-6.726715 5.004224,-13.728555 7.938512,-20.401788 1.360135,-3.093254 1.432071,-5.53486 -0.182414,-8.415673 -2.436936,-4.348343 -4.636748,-8.832314 -6.854792,-13.299626 -1.479648,-2.980133 -1.194348,-5.652166 1.274134,-8.18854 5.335743,-5.482479 10.62422,-11.020936 15.701815,-16.740843 2.909145,-3.277142 6.182179,-4.230508 9.708844,-1.856802 10.662315,7.176525 21.132195,8.207371 31.700481,-0.06904 0.757957,-0.593581 1.795674,-1.027375 2.7504,-1.141504 8.761893,-1.047466 11.508683,-7.063183 13.45851,-14.71538 3.276231,-12.85784631 4.195711,-13.05386133 17.619491,-12.47757355 4.80694,0.20636909 9.65049,-0.0386466 14.45769,-0.36608659 3.83627,-0.26131129 6.57442,1.28342504 8.1506,4.54226784 2.16716,4.480671 3.6343,9.3282033 6.07361,13.6380703 1.40237,2.477744 3.7962,4.892345 6.33201,6.130762 5.95787,2.90964 12.20896,5.266728 18.4736,7.471816 1.92553,0.67776 4.56857,0.810429 6.38211,0.02944 5.18456,-2.232685 10.11185,-5.062777 15.87592,-7.69579 1.84381,-0.05268 2.95206,-0.06747 4.06029,-0.08227 2.75469,2.281645 5.50936,4.563299 8.57011,7.359523 0.95964,0.959119 1.61318,1.403668 2.26674,1.848218 3.56109,3.459966 7.12218,6.91994 10.91906,10.977883 0.15485,2.662582 0.56395,4.903971 -0.10445,6.756707 -1.6243,4.50289 -3.53904,8.934495 -5.74703,13.18153 -1.45258,2.794054 -1.40242,5.041715 -0.0437,7.872314 3.21843,6.704804 5.91466,13.659598 9.10395,20.379537 0.72022,1.517448 2.59015,2.489244 3.93083,3.71222 M 11.072994,140.19768 c 3.545569,1.26928 7.177773,2.3433 10.610675,3.86651 3.02035,1.34017 5.817719,3.18284 8.581648,5.58423 2.098054,5.55977 3.062074,11.99137 6.527865,16.49967 7.447301,9.68744 5.240124,18.23376 -0.182853,27.5044 -3.346814,5.72141 -2.468547,7.50918 4.027388,11.8657 2.888816,2.75923 5.883137,5.4181 8.632887,8.30956 2.179244,2.2916 4.204211,2.7059 7.018275,1.0241 3.704357,-2.21386 7.762843,-3.83858 11.448353,-6.07956 3.307875,-2.01132 6.181262,-2.29269 9.702361,-0.31508 4.17973,2.3475 8.568471,5.09693 13.153827,5.80052 12.866,1.97411 19.84651,9.25915 22.31719,21.6158 0.72907,3.64629 3.37703,4.58852 6.71031,4.49055 5.15829,-0.15148 10.32764,-0.48151 15.47405,-0.27699 3.15256,0.1253 4.46317,-1.18469 5.26191,-3.93816 1.48087,-5.10494 2.90546,-10.25287 4.86966,-15.17699 0.73291,-1.83745 2.64455,-3.65443 4.4737,-4.52752 8.21791,-3.92253 16.55596,-7.6062 24.95739,-11.12095 1.74983,-0.73205 4.19309,-1.03608 5.90132,-0.40777 5.13425,1.88849 9.96801,4.60824 15.1271,6.4068 1.67373,0.58351 4.58147,-0.0191 5.90208,-1.21173 4.18407,-3.77844 7.78631,-8.19199 11.81138,-12.15922 2.24332,-2.21108 2.68058,-4.16718 1.07575,-7.01064 -2.44766,-4.3368 -4.36751,-8.96874 -6.73951,-13.35198 -1.49806,-2.76826 -1.1367,-4.95128 0.11808,-7.86688 3.53077,-8.20412 6.28134,-16.74077 9.61534,-25.03542 0.70424,-1.752 2.30147,-3.6538 3.97435,-4.41219 4.98673,-2.26068 10.29911,-3.80095 15.29671,-6.04104 1.41561,-0.63451 3.02218,-2.65552 3.10549,-4.12222 0.29173,-5.13714 -0.0627,-10.30961 -0.13396,-15.46916 -0.0552,-3.99974 -1.79445,-6.36849 -5.85426,-7.48226 -4.62776,-1.26955 -9.17186,-2.97531 -13.55702,-4.92974 -1.63191,-0.72734 -3.20128,-2.470256 -3.9608,-4.133011 -3.92712,-8.597359 -7.75095,-17.252555 -11.21195,-26.044579 -0.84275,-2.140905 -0.82812,-5.09215 -0.0843,-7.290806 1.8005,-5.322641 4.26307,-10.421315 6.93809,-15.967395 -0.52086,-0.875571 -1.04173,-1.751141 -1.99477,-3.124907 -2.92824,-2.764519 -5.85648,-5.529038 -8.8154,-8.987097 -6.15742,-6.58622 -6.4973,-6.666794 -14.23511,-2.677616 -2.49497,1.28627 -4.93149,2.686692 -7.38564,4.051219 -3.65847,2.034138 -6.90655,2.16237 -11.11117,0.307679 -8.38949,-3.700705 -17.27943,-6.266934 -26.56732,-9.644016 -2.80404,-6.200508 -5.60808,-12.401023 -8.30064,-19.377235 -1.63255,-1.0223403 -3.25368,-2.8934307 -4.89972,-2.9156374 -6.13262,-0.082747 -12.28998,0.272737 -18.39815,0.8709411 -1.32735,0.1299937 -3.11134,1.7079079 -3.61779,3.0282823 -1.96175,5.114628 -3.29069,10.47396 -5.29497,15.569211 -0.68614,1.744287 -2.394614,3.537459 -4.094519,4.355376 -8.208775,3.949707 -16.502792,7.748396 -24.932638,11.1944 -2.152579,0.879931 -5.129568,0.945183 -7.345756,0.218935 -4.715584,-1.5453 -9.211137,-3.789199 -13.736414,-5.877753 -2.645804,-1.22113 -4.636401,-0.782481 -6.639635,1.381573 -3.841626,4.150049 -8.102184,7.929222 -11.740915,12.240406 -1.177128,1.39468 -1.85261,4.335258 -1.204207,5.941731 2.105352,5.216179 5.097651,10.067913 7.377886,15.22384 0.697777,1.577761 0.751576,3.882477 0.160889,5.514255 -3.205768,8.855942 -6.570795,17.661994 -10.212487,26.346224 -0.77521,1.8486 -2.659583,3.6973 -4.495242,4.54568 -4.81422,2.22495 -9.971644,3.70513 -14.7966251,5.91025 -1.4127794,0.64568 -3.0516037,2.71233 -3.0752635,4.15253 -0.1062232,6.46521 0.1745755,12.95258 0.7150047,19.39847 0.1009877,1.20456 2.0301732,2.2558 3.7321359,3.75671 z"
   id="path3"
   style="fill:#bab0ff;fill-opacity:1" />
<path
   fill="#9a9b9d"
   opacity="1"
   stroke="none"
   d="m 221.48346,199.21556 c 2.63745,-3.10644 1.29682,-6.1918 -0.14853,-9.19665 -2.08944,-4.3438 -4.56381,-8.52436 -6.33746,-12.98775 -0.75317,-1.89533 -0.73068,-4.53366 -0.0527,-6.48395 2.33737,-6.72421 5.47043,-13.18437 7.5863,-19.96785 1.08795,-3.48794 3.0481,-5.21649 6.11603,-6.3345 4.05524,-1.47785 8.08499,-3.03125 12.17309,-4.41185 3.96641,-1.33952 5.94315,-3.73636 5.67228,-8.15537 -0.52793,-8.61287 -0.75364,-17.24427 -1.05652,-26.29835 1.26532,1.57461 3.33011,3.49328 3.54464,5.60036 0.7063,6.93606 0.76343,13.93956 1.02915,20.91873 0.21411,5.62426 -1.94302,10.11911 -7.61752,11.38565 -11.69199,2.60966 -18.53177,9.39775 -20.36457,21.29109 -0.24487,1.589 -1.13022,3.14796 -1.98175,4.56264 -3.22885,5.36419 -2.27014,10.50851 0.58084,15.61606 7.55139,13.52848 7.53342,13.51344 -3.25583,24.66481 -2.77331,2.86636 -5.42858,5.84835 -8.10054,8.81106 -4.10806,4.55509 -7.64651,5.34857 -13.32371,2.88751 -1.22183,-0.52966 -2.4541,-1.06546 -3.59781,-1.74032 -7.60544,-4.48786 -15.0363,-4.61017 -22.39218,0.62591 -1.33705,0.95175 -2.91368,1.848 -4.49411,2.13086 -9.78296,1.75095 -13.27896,8.73001 -15.33249,17.38605 -1.87933,7.92187 -4.10779,9.78464 -12.27757,10.47787 -6.61733,0.56147 -13.30089,0.7789 -19.93061,0.52067 -2.31569,-0.0901 -4.5583,-2.05622 -6.89573,-3.50498 1.03691,-0.37903 2.13527,-0.4187 3.82696,-0.13126 2.32236,0.12558 4.05135,-0.0759 5.78035,-0.27749 0.32053,-0.0543 0.64327,-0.0773 1.40044,0.28451 5.08874,0.61255 9.74383,0.98148 14.40307,1.04462 1.0254,0.0139 2.06551,-1.05774 3.09885,-1.62952 3.4359,0.0659 5.42262,-1.18551 6.13451,-4.96112 0.7933,-4.20739 2.46376,-8.24939 4.17589,-12.82086 1.80954,-2.44174 3.1956,-4.42609 4.58168,-6.4104 0.67073,-0.10699 1.34143,-0.21399 2.70301,-0.25061 1.92318,-0.82288 3.15551,-1.71606 4.38784,-2.60922 0.74327,-0.33444 1.48655,-0.66889 2.76423,-0.80509 3.73717,-1.64468 6.93993,-3.4876 10.14269,-5.33053 0.75619,-0.37464 1.51239,-0.74927 2.79312,-0.8414 1.75713,0.41635 2.98973,0.55026 4.22232,0.6842 3.65082,1.50568 7.22765,3.2424 10.97623,4.44275 2.9174,0.93418 6.04872,1.20026 9.89062,1.72626 4.3376,-1.08878 6.84749,-3.05466 7.08226,-7.05521 1.4466,-1.58008 2.89319,-3.16015 4.97418,-4.90271 2.79596,-2.75986 4.95752,-5.35724 7.11908,-7.95462 z"
   id="path4" />
<path
   fill="#878991"
   opacity="1"
   stroke="none"
   d="m 40.385284,215.37447 c 2.384888,1.58892 4.954972,3.34808 7.148232,5.49261 2.644005,2.58524 5.410095,3.01352 8.570957,1.36377 4.2562,-2.22143 8.32975,-4.88321 12.76771,-6.62887 2.31304,-0.90983 5.45106,-0.93683 7.84802,-0.18616 6.61332,2.07104 12.95395,5.0087 19.55909,7.1116 3.752437,1.19473 5.919807,3.36667 6.954807,7.30939 -4.072947,-1.67447 -8.250637,-3.46341 -12.098087,-5.79688 -11.12573,-6.74759 -21.7533,-6.24337 -32.25693,1.3757 -2.84908,2.06669 -6.06595,1.75666 -8.734559,-0.57873 -3.345574,-2.92786 -6.502587,-6.07114 -9.75924,-9.46243 z"
   id="path5" />
<path
   fill="#a7a8ab"
   opacity="1"
   stroke="none"
   d="m 225.34736,95.665507 c -1.31916,-0.84749 -3.19025,-1.81706 -3.91227,-3.33365 -3.19729,-6.71614 -5.90179,-13.66772 -9.1282,-20.36869 -1.36209,-2.82898 -1.41492,-5.07658 0.0343,-7.87236 2.20294,-4.24966 4.1124,-8.68354 5.73135,-13.18836 0.66617,-1.85353 0.2544,-4.09443 0.34241,-6.531843 4.02469,1.975973 5.05384,5.676483 2.80863,9.328603 -6.87876,11.18913 -7.18112,21.92756 0.50671,32.86968 1.76361,2.51018 2.42526,5.79461 3.61704,9.09662 z"
   id="path6" />
<path
   fill="#a7a8ab"
   opacity="1"
   stroke="none"
   d="m 196.30808,23.67964 c -1.02725,0.322372 -2.13548,0.338486 -3.64975,0.261391 0.9189,-0.251358 2.24383,-0.4095 3.64975,-0.261391 z"
   id="path7" />
<path
   fill="#a7a8ab"
   opacity="1"
   stroke="none"
   d="m 207.23014,32.845747 c -0.64739,-0.10878 -1.30146,-0.552551 -2.0045,-1.305504 0.63328,0.117379 1.31555,0.543946 2.0045,1.305504 z"
   id="path8" />
<path
   fill="#a7a8ab"
   opacity="1"
   stroke="none"
   d="m 238.42395,100.25996 c -0.6062,0.16721 -1.37536,0.0626 -2.30563,-0.304733 0.60681,-0.16415 1.37473,-0.0656 2.30563,0.304733 z"
   id="path9" />
<path
   fill="#a7a8ab"
   opacity="1"
   stroke="none"
   d="m 232.39264,98.445917 c -0.63433,0.16381 -1.38629,0.0178 -2.29944,-0.38795 0.61985,-0.1471 1.40085,-0.0345 2.29944,0.38795 z"
   id="path10" />























<path
   fill="#8e8f93"
   opacity="1"
   stroke="none"
   d="m 133.38047,9.717985 c -5.21627,0.392556 -10.37824,0.33535 -15.53792,0.419846 -4.8228,0.07898 -8.64719,2.013779 -9.45856,7.101265 -1.82942,11.470627 -8.02368,18.258972 -19.578257,20.710014 -4.09221,0.868057 -7.91843,3.475968 -11.58305,5.746414 -4.24385,2.629303 -8.343,2.869043 -12.7603,0.766404 -2.85234,-1.357705 -5.88527,-2.377198 -8.62068,-3.929841 -4.24098,-2.407196 -7.573179,-1.415718 -10.614011,2.020379 -2.533852,2.863212 -5.086892,5.715611 -7.75544,8.451861 -3.039925,3.11705 -3.438133,6.93857 -1.062233,10.02014 7.650871,9.92322 6.819786,19.5301 0.623573,29.74251 -2.099663,3.46061 -2.980675,7.74556 -3.988678,11.761723 -1.21804,4.85292 -4.170166,7.61072 -8.746597,9.33722 -17.103924,6.45265 -13.85754,3.57532 -14.086762,20.68062 -0.02893,2.15903 0.166157,4.32103 0.261059,6.94405 -1.083225,-0.65831 -3.01366,-1.70726 -3.116081,-2.9117 -0.548099,-6.44524 -0.836613,-12.93227 -0.738087,-19.3976 0.02195,-1.44023 1.65831,-3.50883 3.07032,-4.15619 4.822354,-2.21086 9.978013,-3.69717 14.789582,-5.92785 1.834648,-0.85056 3.71682,-2.7015 4.48983,-4.55103 3.631355,-8.688553 6.985901,-17.498603 10.181129,-26.358353 0.588745,-1.63248 0.532204,-3.93713 -0.16745,-5.51406 -2.286369,-5.15321 -5.284439,-10.00138 -7.395996,-15.21505 -0.650314,-1.6057 0.02167,-4.54708 1.197136,-5.94316 3.633598,-4.31551 7.889656,-8.099751 11.726341,-12.254368 2.000657,-2.166436 3.990731,-2.607453 6.637986,-1.389473 4.527759,2.083168 9.025979,4.321716 13.743399,5.861404 2.21705,0.72361 5.19396,0.654816 7.34549,-0.227676 8.42574,-3.456032 16.71523,-7.264588 24.9193,-11.22406 1.69893,-0.819939 3.405267,-2.615143 4.089337,-4.360245 1.99821,-5.097633 3.32077,-10.458542 5.27644,-15.575501 0.50487,-1.320976 2.28699,-2.901012 3.61418,-3.032585 6.10745,-0.605472 12.26439,-0.96828 18.3971,-0.892833 1.64607,0.02025 3.26942,1.889408 4.8479,3.297725 z"
   id="path34" />
<path
   fill="#989a9e"
   opacity="1"
   stroke="none"
   d="m 201.08387,36.936323 c -4.93761,-2.102188 -9.6463,-1.401382 -14.00237,1.704148 -7.65695,5.458824 -15.00703,4.984054 -23.06116,0.331772 -4.92163,-2.842881 -10.84678,-3.913453 -16.23529,-6.001809 -1.90858,-0.739685 -3.56266,-2.136131 -5.37674,-3.5821 8.64304,2.675103 17.53603,5.230751 25.92992,8.921471 4.20682,1.849686 7.45474,1.71759 11.11079,-0.3209 2.45253,-1.367447 4.88738,-2.770767 7.38082,-4.060005 7.73305,-3.998383 8.07303,-3.918213 14.25403,3.007423 z"
   id="path35" />
<path
   fill="#93959a"
   opacity="1"
   stroke="none"
   d="m 30.362183,149.36867 c 1.390709,1.3643 3.054184,2.95781 3.980903,4.9024 3.476509,7.295 6.959412,14.60784 9.905564,22.12346 1.041336,2.65642 1.249931,6.07802 0.592178,8.85501 -0.901543,3.80632 -3.365921,7.22518 -4.438492,11.01444 -0.708839,2.50426 -0.14991,5.36734 -0.142792,8.46968 -6.025093,-3.466 -6.905487,-5.25273 -3.565483,-10.97811 5.411942,-9.27709 7.608948,-17.82603 0.150124,-27.5046 -3.471153,-4.50418 -4.442825,-10.93462 -6.482002,-16.88228 z"
   id="path36" />
<path
   fill="#6a6b77"
   opacity="1"
   stroke="none"
   d="m 139.06113,246.20293 c -0.55867,0.67297 -1.59878,1.7446 -2.62418,1.73071 -4.65924,-0.0631 -9.31433,-0.43207 -14.16079,-1.02606 5.31016,-0.49201 10.81024,-0.64896 16.78497,-0.70465 z"
   id="path37" />
<path
   fill="#6a6b77"
   opacity="1"
   stroke="none"
   d="m 174.05974,213.11467 c -2.83685,1.84455 -6.03961,3.68747 -9.4743,5.28317 2.8815,-1.92642 5.99495,-3.60562 9.4743,-5.28317 z"
   id="path38" />
<path
   fill="#77797e"
   opacity="1"
   stroke="none"
   d="m 221.1561,199.29268 c -1.8342,2.52026 -3.99576,5.11764 -6.51352,7.71454 1.82456,-2.54614 4.00534,-5.0918 6.51352,-7.71454 z"
   id="path39" />
<path
   fill="#77797e"
   opacity="1"
   stroke="none"
   d="m 209.07334,212.17879 c 0.0821,3.89465 -2.4278,5.86053 -6.32663,6.90564 1.75867,-2.27103 3.8842,-4.5354 6.32663,-6.90564 z"
   id="path40" />
<path
   fill="#6a6b77"
   opacity="1"
   stroke="none"
   d="m 154.04468,222.06929 c -1.00288,2.02676 -2.38894,4.01111 -4.08542,6.0925 0.12081,-2.56381 -0.29805,-5.77206 4.08542,-6.0925 z"
   id="path41" />
<path
   fill="#6a6b77"
   opacity="1"
   stroke="none"
   d="m 120.18537,246.44597 c -1.28093,0.36008 -3.00992,0.56161 -4.92206,0.50003 1.36922,-0.39496 2.9216,-0.52676 4.92206,-0.50003 z"
   id="path42" />
<path
   fill="#6a6b77"
   opacity="1"
   stroke="none"
   d="m 161.16719,219.20812 c -0.88079,0.93695 -2.11312,1.83013 -3.69941,2.60937 0.87997,-0.96033 2.11393,-1.80673 3.69941,-2.60937 z"
   id="path43" />
<path
   fill="#6a6b77"
   opacity="1"
   stroke="none"
   d="m 181.34961,212.63066 c -1.14111,0.19449 -2.37371,0.0606 -3.80584,-0.39545 1.1051,-0.19241 2.40973,-0.0627 3.80584,0.39545 z"
   id="path44" />
<path
   fill="#989a9e"
   opacity="1"
   stroke="none"
   d="m 211.65326,48.867557 c -0.62582,-0.59312 -1.0122,-1.36511 -1.36245,-2.4704 0.55807,0.54165 1.07998,1.4166 1.36245,2.4704 z"
   id="path45" />






<path
   fill="#63658b"
   opacity="1"
   stroke="none"
   d="m 194.2819,146.04695 c 5.16102,-13.05707 5.31309,-26.49978 3.40837,-40.56196 0.74017,-0.43599 1.16122,-0.43544 1.58229,-0.43489 3.99127,12.3128 3.07794,24.70251 -0.46563,36.78582 -9.58371,32.67968 -31.5892,51.99761 -64.99868,57.68141 -13.23891,2.25228 -26.53315,0.49228 -39.160527,-4.5854 -1.11981,-0.45029 -1.97871,-1.54942 -2.60557,-2.62431 3.44237,0.37108 6.52196,1.06988 9.622817,1.65617 5.27098,0.99655 10.55536,1.92224 16.50651,3.23474 1.40846,0.42354 2.14452,0.49007 3.19498,0.40578 1.19136,-0.36191 2.06833,-0.573 2.94528,-0.7841 3.4444,-0.18897 6.8888,-0.37792 11.01315,-0.69591 1.49215,-0.37451 2.30436,-0.62 3.11657,-0.86546 0.73771,-0.10753 1.47541,-0.21508 2.88969,-0.41144 1.38161,-0.51291 2.08666,-0.93701 2.79169,-1.36112 13.02766,-2.56877 23.58781,-9.5818 32.61874,-18.8829 7.2101,-7.4258 13.10204,-15.89197 17.0011,-26.29389 0.38129,-1.11537 0.46025,-1.68894 0.53922,-2.26254 z"
   id="path52" />
<path
   fill="#616289"
   opacity="1"
   stroke="none"
   d="m 52.243042,146.09551 c 0.606392,1.79173 1.212784,3.58348 1.964867,5.99621 0.121093,1.07207 0.09649,1.52315 -0.178345,2.08838 -0.734596,0.37126 -1.218987,0.62834 -1.703369,0.88541 -11.463806,-23.99591 -10.195938,-47.67134 1.874008,-71.031803 1.20691,-2.33588 2.84371,-4.44963 4.96555,-6.83444 1.25245,-0.14342 1.82034,-0.11889 2.38822,-0.0944 -3.86709,8.8987 -7.770129,17.78212 -11.562587,26.712513 -0.56945,1.34093 -0.621589,2.90153 -1.082275,5.00833 -0.249153,1.50858 -0.329071,2.36931 -0.408981,3.23006 -0.04646,6.36233 -0.09293,12.72465 -0.04272,19.81334 0.263252,1.24881 0.429848,1.77127 0.596451,2.29374 0.684555,3.05591 1.369118,6.11182 2.195648,9.81911 0.425827,1.13876 0.709679,1.62613 0.993538,2.1135 z"
   id="path53" />
<path
   fill="#61638a"
   opacity="1"
   stroke="none"
   d="m 146.35453,50.182437 c -3.34883,-0.86849 -6.69767,-1.73697 -10.67673,-2.75317 -1.19481,-0.17629 -1.75937,-0.20485 -2.32393,-0.23342 -6.69862,-0.0702 -13.39725,-0.14043 -20.82494,-0.1441 -1.24768,0.27464 -1.76628,0.48275 -2.28489,0.69084 -5.77407,1.62442 -11.548137,3.24884 -17.898327,5.08767 -1.04831,0.54354 -1.52048,0.87268 -1.99265,1.20181 -1.49249,0.28945 -2.985,0.5789 -4.7245,0.45994 0.40523,-1.19121 0.89833,-2.28882 1.733,-2.71071 20.469847,-10.346583 41.540497,-11.536563 63.035097,-3.65538 1.47038,0.53914 5.22525,0.13772 3.90043,4.25775 -1.74647,-0.30133 -3.44375,-0.90272 -5.69302,-1.76978 -1.11784,-0.32093 -1.6837,-0.37619 -2.24954,-0.43145 z"
   id="path54" />
<path
   fill="#63658b"
   opacity="1"
   stroke="none"
   d="m 199.36481,104.65245 c -0.51332,0.3971 -0.93437,0.39655 -1.67129,0.39487 -5.27761,-9.885363 -9.62043,-20.149193 -15.38173,-29.543033 -5.35901,-8.73792 -13.70478,-14.80014 -23.27047,-19.91961 -1.15167,-0.80872 -1.87959,-1.23587 -2.60751,-1.66302 0,0 0.003,0.0631 0.0274,0.0397 2.92027,-2.04596 5.45941,-0.6888 7.92479,0.87274 14.94428,9.4656 25.6496,22.45045 31.99481,38.95503 1.30053,3.38281 2.06478,6.971793 2.98395,10.863343 z"
   id="path55" />
<path
   fill="#65678d"
   opacity="1"
   stroke="none"
   d="m 52.36158,155.42198 c 0.448997,-0.61354 0.933388,-0.87062 1.900787,-1.07611 0.974466,0.62157 1.465916,1.19155 1.957356,1.76154 4.82199,6.72282 9.64398,13.44563 14.21733,20.65472 -0.55754,0.91187 -0.86644,1.33746 -1.17533,1.76308 -7.50555,-6.18544 -12.55558,-14.19145 -16.900143,-23.10323 z"
   id="path56" />
<path
   fill="#68698e"
   opacity="1"
   stroke="none"
   d="m 61.854723,76.971527 c -0.86863,0.10885 -1.43652,0.0843 -2.43292,0.0323 4.49678,-5.51318 9.42208,-10.99885 14.6472,-16.23466 0.31434,0.97947 0.32884,1.7091 0.34334,2.43872 -4.08564,4.54342 -8.17126,9.08685 -12.55762,13.76367 z"
   id="path57" />
<path
   fill="#63658b"
   opacity="1"
   stroke="none"
   d="m 78.007153,184.26387 c 5.11493,2.17766 9.84693,4.5905 14.46997,7.37503 -0.88996,0.60283 -1.94896,1.28116 -2.4085,0.99542 -4.20743,-2.61641 -8.31071,-5.40025 -12.06147,-8.37045 z"
   id="path58" />
<path
   fill="#61638a"
   opacity="1"
   stroke="none"
   d="m 85.062503,53.864287 c 0.13005,1.07398 0.22094,2.34957 -0.31836,2.72866 -2.1533,1.5136 -4.50259,2.74838 -7.06844,3.79003 0.43942,-1.5208 0.91805,-3.05277 1.9561,-3.89637 1.48634,-1.20793 3.38139,-1.91297 5.4307,-2.62232 z"
   id="path59" />
<path
   fill="#61638a"
   opacity="1"
   stroke="none"
   d="m 74.790713,63.169867 c -0.39287,-0.69163 -0.40737,-1.42126 -0.41966,-2.51533 0.84971,-0.71235 1.69719,-1.06026 2.78693,-0.99461 -0.50147,1.43302 -1.24518,2.45248 -2.36727,3.50994 z"
   id="path60" />
<path
   fill="#63658b"
   opacity="1"
   stroke="none"
   d="m 75.346763,180.72328 c 1.1026,0.86748 2.20519,1.73496 3.16928,2.94844 -0.99096,0.36826 -1.84341,0.39052 -2.93934,-0.34526 -0.23897,-1.37309 -0.23446,-1.98814 -0.22994,-2.60318 z"
   id="path61" />
<path
   fill="#63658b"
   opacity="1"
   stroke="none"
   d="m 70.130883,178.41774 c 1.41378,0.009 2.56744,0.41553 3.48521,1.20827 -1.40571,-0.0128 -2.57553,-0.41147 -3.48521,-1.20827 z"
   id="path62" />
<path
   fill="#65678d"
   opacity="1"
   stroke="none"
   d="m 75.282923,180.7285 c 0.0593,0.60982 0.0548,1.22487 0.0286,2.30202 -0.83959,-0.15022 -1.65748,-0.76257 -1.91263,-1.74236 0.93943,-0.42535 1.31609,-0.4833 1.69275,-0.54124 0,0 0.12744,-0.0132 0.19129,-0.0184 z"
   id="path63" />
<path
   fill="#63658b"
   opacity="1"
   stroke="none"
   d="m 74.923073,180.38525 c -0.2081,0.41961 -0.58476,0.47756 -1.5356,0.50446 -0.56069,-0.22838 -0.5472,-0.42574 -0.26259,-0.74347 0.72396,-0.12115 1.17678,-0.1219 1.79819,0.23901 z"
   id="path64" />
<path
   fill="#63658b"
   opacity="1"
   stroke="none"
   d="m 69.626943,178.59024 c -0.0563,-0.49065 0.25257,-0.91624 0.93883,-1.49251 0.3961,0.0845 0.41483,0.31971 0.13737,0.74863 -0.43446,0.39882 -0.57272,0.60387 -1.0762,0.74388 z"
   id="path65" />
<path
   fill="#dfa452"
   opacity="1"
   stroke="none"
   d="m 116.69422,164.05473 c -0.009,-1.75987 -0.0171,-3.51974 -0.21182,-6.01539 -2.11522,-1.64601 -4.04419,-2.55625 -5.60216,-3.68767 4.68103,0.13414 6.40495,-1.81328 5.79024,-6.08963 -0.28173,-1.95976 -0.23037,-3.96742 -0.26465,-6.32224 0.10496,-0.86434 0.14448,-1.35981 0.18402,-1.8553 0.0656,-3.66856 0.13127,-7.33712 0.35507,-11.81135 0.0932,-4.27463 0.0282,-7.74358 -0.0368,-11.21254 -0.0847,-5.01683 -0.1694,-10.03368 -0.10814,-15.75925 0.0795,-1.553953 0.0131,-2.399153 -0.0533,-3.244373 0.20329,-1.97053 0.40659,-3.94107 1.05089,-6.37939 1.47928,-0.58455 2.51756,-0.70133 3.55583,-0.8181 2.69276,0.115 5.38553,0.23001 8.65359,0.60475 0.88356,1.06508 1.19182,1.87044 1.4618,3.13716 0.006,16.077713 0.0512,31.694063 0.0249,47.782963 0.0719,3.87712 0.21496,7.28169 0.25673,11.02589 0.6403,2.13181 1.38187,3.92395 2.33082,5.99532 1.23256,1.01784 2.25774,1.75647 3.28292,2.49509 7.59654,0.1352 15.1931,0.27043 23.36534,0.68675 1.77254,3.89407 4.81904,7.15895 2.66844,11.40182 0,0 -0.0897,0.0104 -0.50594,0.0855 -6.67866,0.39459 -12.94334,1.00731 -19.20294,0.95921 -7.75374,-0.0596 -15.50325,-0.66705 -23.25459,-1.03784 -1.13333,-2.3987 -2.26666,-4.79741 -3.41599,-7.89548 -0.11879,-1.14821 -0.22157,-1.59703 -0.32435,-2.04587 z"
   id="path66" />
<path
   fill="#313363"
   opacity="1"
   stroke="none"
   d="m 116.34041,142.30869 c 0.0997,1.98593 0.0483,3.99359 0.33007,5.95335 0.61471,4.27635 -1.10921,6.22377 -6.27424,5.98898 -7.58297,-0.29445 -14.310937,-0.70941 -21.038887,-1.12437 -0.72359,-2.43898 -2.06953,-4.8768 -2.07414,-7.31714 -0.0442,-23.44626 0.20021,-46.892993 0.18489,-70.339463 -0.002,-3.36474 0.55993,-5.0735 4.38161,-4.46517 2.08311,0.33158 4.32153,-0.27669 6.39079,0.0933 1.3177,0.23559 2.453697,1.48743 3.839637,3.01044 0.69521,4.48014 1.63001,8.2284 1.67643,11.98761 0.17837,14.443913 0.071,28.891363 0.0721,43.337483 9.8e-4,12.58212 0.002,12.58212 12.5117,12.87499 z"
   id="path67"
   style="fill:#b7b8db;fill-opacity:1" />
<path
   fill="#f1f1f2"
   opacity="1"
   stroke="none"
   d="m 116.40583,141.9398 c -12.57502,0.076 -12.57614,0.076 -12.57712,-12.5061 -0.001,-14.44612 0.10623,-28.89357 -0.0721,-43.337483 -0.0464,-3.75921 -0.98122,-7.50747 -1.47208,-11.65263 4.93443,1.28271 3.9284,5.70373 3.979,9.14931 0.23151,15.76619 0.10182,31.537693 0.10201,47.307283 1e-4,9.1317 2.1e-4,9.1317 9.74466,9.17215 0.44015,0.50766 0.40063,1.00313 0.29567,1.86747 z"
   id="path68" />
<path
   fill="#363760"
   opacity="1"
   stroke="none"
   d="m 133.87395,159.12637 c -0.74157,-1.79216 -1.48314,-3.5843 -1.76961,-5.74925 7.09742,-1.8477 3.28284,-7.11876 4.6124,-10.79864 2.15894,-0.24105 3.90019,-0.35744 5.64143,-0.47383 0.80065,0.25614 1.60131,0.51229 2.71593,1.22328 3.58165,9.52464 3.34873,10.13015 -4.16214,11.06097 -1.64096,0.27809 -2.97745,0.79534 -4.63882,1.49614 -1.01633,1.20282 -1.70777,2.22208 -2.39919,3.24133 z"
   id="path69"
   style="fill:#b9bad8;fill-opacity:1" />
<path
   fill="#a49e9a"
   opacity="1"
   stroke="none"
   d="m 131.56485,141.9118 c -0.0448,-15.61633 -0.0895,-31.23268 0.11164,-47.339033 0.24594,-0.49002 0.66629,-0.51761 0.66629,-0.51761 0.0612,0.33363 0.22572,0.60449 0.74481,1.21813 0.59386,0.86198 0.93646,1.31843 1.27905,1.77488 0.0629,14.020273 0.12575,28.040533 0.2103,42.789373 -0.0149,1.11836 -0.0515,1.50815 -0.44302,2.00833 -1.09293,0.0956 -1.831,0.0808 -2.56907,0.0659 z"
   id="path70" />
<path
   fill="#f1f1f2"
   opacity="1"
   stroke="none"
   d="m 120.46288,174.36287 c 7.72302,0.004 15.47253,0.61147 23.22627,0.67105 6.2596,0.0481 12.52428,-0.56462 19.1982,-0.91431 -2.33663,1.28869 -5.02901,3.58411 -7.84319,3.74466 -8.71541,0.49726 -17.48982,0.44703 -26.21364,0.03 -2.82374,-0.13497 -5.56198,-2.05898 -8.36764,-3.53142 z"
   id="path71" />
<path
   fill="#f1f1f2"
   opacity="1"
   stroke="none"
   d="m 89.419803,153.47298 c 6.6655,0.0686 13.393467,0.48359 20.605407,0.9992 2.413,1.01091 4.34197,1.92115 6.32553,3.20337 -4.92679,0.37267 -9.92398,0.12699 -14.88502,0.44495 -4.735377,0.30353 -8.758817,-0.71536 -12.045917,-4.64752 z"
   id="path72" />
<path
   fill="#f1f1f2"
   opacity="1"
   stroke="none"
   d="m 141.21645,154.62804 c 7.20638,-1.16996 7.4393,-1.77547 4.16795,-11.235 1.64966,1.68658 4.38811,3.63708 4.64753,5.87495 0.25335,2.18553 -1.54285,5.18228 -3.34052,6.85358 -1.48436,1.38003 -4.38679,1.11278 -6.4615,2.0276 -1.16199,0.51238 -1.91852,1.94426 -2.86171,3.35666 -1.02913,-0.34378 -2.05431,-1.08241 -3.28687,-2.10025 0.48404,-1.29846 1.17548,-2.31772 2.51104,-3.37859 1.97078,-0.49406 3.29744,-0.94651 4.62408,-1.39895 z"
   id="path73" />
<path
   fill="#f1f1f2"
   opacity="1"
   stroke="none"
   d="m 163.74822,173.95351 c 1.80041,-4.20714 -1.24609,-7.47202 -2.57285,-11.43076 4.52913,2.43105 5.90599,7.72609 2.57285,11.43076 z"
   id="path74" />
<path
   fill="#f1f1f2"
   opacity="1"
   stroke="none"
   d="m 116.59101,117.179 c 0.38214,3.35057 0.44711,6.81952 0.30621,10.64212 -0.34505,-3.27214 -0.48419,-6.89793 -0.30621,-10.64212 z"
   id="path75" />
<path
   fill="#f1f1f2"
   opacity="1"
   stroke="none"
   d="m 134.48877,141.73547 c 0.0366,-0.38978 0.0733,-0.77957 0.2123,-1.44822 2.56961,0.16522 5.03679,0.60931 7.58054,1.43539 -1.66468,0.4984 -3.40593,0.61479 -5.84839,0.66278 -1.11563,-0.26225 -1.53003,-0.4561 -1.94445,-0.64995 z"
   id="path76" />
<path
   fill="#f1f1f2"
   opacity="1"
   stroke="none"
   d="m 121.2752,90.527937 c -0.96001,0.44833 -1.99829,0.56511 -3.42589,0.72485 0.0868,-2.93921 1.48361,-2.79182 3.42589,-0.72485 z"
   id="path77" />
<path
   fill="#f1f1f2"
   opacity="1"
   stroke="none"
   d="m 56.481303,155.92915 c -0.75302,-0.39173 -1.24447,-0.96171 -1.96871,-1.69746 -0.208195,-0.61682 -0.183591,-1.0679 -0.0988,-1.85243 0.81647,0.90156 1.57278,2.13659 2.06752,3.54989 z"
   id="path78" />
<path
   fill="#f1f1f2"
   opacity="1"
   stroke="none"
   d="m 124.137,196.63438 c -0.70221,0.39693 -1.57918,0.60802 -2.93463,0.69782 -0.5851,-0.30492 -0.6917,-0.48852 -0.79828,-0.67212 1.18605,-0.0705 2.37211,-0.14101 3.73291,-0.0257 z"
   id="path79" />
<path
   fill="#f1f1f2"
   opacity="1"
   stroke="none"
   d="m 116.47895,98.159287 c 0.3342,0.74292 0.40062,1.58812 0.27133,2.697173 -0.31018,-0.68906 -0.42465,-1.641973 -0.27133,-2.697173 z"
   id="path80" />
<path
   fill="#f1f1f2"
   opacity="1"
   stroke="none"
   d="m 138.26377,194.98135 c -0.63452,0.52295 -1.44673,0.76844 -2.58464,0.95922 0.58517,-0.4487 1.49608,-0.8427 2.58464,-0.95922 z"
   id="path81" />
<path
   fill="#f1f1f2"
   opacity="1"
   stroke="none"
   d="m 132.35265,93.699617 c -0.01,0.35554 -0.43022,0.38313 -0.63786,0.41177 -0.51592,-0.7767 -0.82418,-1.58206 -1.25949,-2.68394 0.55104,0.44116 1.22914,1.17889 1.89735,2.27217 z"
   id="path82" />
<path
   fill="#f1f1f2"
   opacity="1"
   stroke="none"
   d="m 48.819923,111.99538 c -0.239883,-0.80031 -0.159965,-1.66104 0.136345,-2.76911 0.205414,0.73801 0.194435,1.72335 -0.136345,2.76911 z"
   id="path83" />
<path
   fill="#f1f1f2"
   opacity="1"
   stroke="none"
   d="m 143.77494,193.37151 c -0.35713,0.53888 -1.06218,0.96298 -2.09929,1.32837 0.36242,-0.52019 1.05691,-0.98166 2.09929,-1.32837 z"
   id="path84" />
<path
   fill="#f1f1f2"
   opacity="1"
   stroke="none"
   d="m 116.48499,164.12944 c 0.31201,0.37413 0.41479,0.82295 0.37251,1.59496 -0.29062,-0.29131 -0.43617,-0.90578 -0.37251,-1.59496 z"
   id="path85" />
<path
   fill="#f1f1f2"
   opacity="1"
   stroke="none"
   d="m 110.38327,48.005767 c 0.37938,-0.47127 0.89798,-0.67938 1.70054,-0.83058 -0.33114,0.4025 -0.94622,0.74812 -1.70054,0.83058 z"
   id="path86" />
<path
   fill="#f1f1f2"
   opacity="1"
   stroke="none"
   d="m 133.40574,47.495527 c 0.51269,-0.27111 1.07725,-0.24255 1.87146,-0.0409 -0.45343,0.22892 -1.13653,0.28475 -1.87146,0.0409 z"
   id="path87" />
<path
   fill="#f1f1f2"
   opacity="1"
   stroke="none"
   d="m 193.98661,146.08827 c 0.21632,0.53228 0.13736,1.10585 -0.1738,1.8631 -0.19528,-0.48482 -0.15837,-1.1533 0.1738,-1.8631 z"
   id="path88" />
<path
   fill="#f1f1f2"
   opacity="1"
   stroke="none"
   d="m 134.59333,96.871257 c -0.56928,-0.27954 -0.91188,-0.73599 -1.29019,-1.48791 0.48182,0.24002 0.99934,0.77551 1.29019,1.48791 z"
   id="path89" />
<path
   fill="#f1f1f2"
   opacity="1"
   stroke="none"
   d="m 52.483131,145.93721 c -0.523948,-0.32907 -0.8078,-0.81644 -1.070938,-1.59701 0.450821,0.2841 0.880928,0.8614 1.070938,1.59701 z"
   id="path90" />
<path
   fill="#f1f1f2"
   opacity="1"
   stroke="none"
   d="m 146.4009,50.477557 c 0.51947,-0.23986 1.08533,-0.1846 1.86104,0.0715 -0.46498,0.20842 -1.13982,0.21602 -1.86104,-0.0715 z"
   id="path91" />
<path
   fill="#f1f1f2"
   opacity="1"
   stroke="none"
   d="m 90.521793,54.258797 c 0.30344,-0.55586 0.77561,-0.885 1.54917,-1.1932 -0.25922,0.48726 -0.81983,0.95359 -1.54917,1.1932 z"
   id="path92" />
<path
   fill="#f1f1f2"
   opacity="1"
   stroke="none"
   d="m 49.314255,134.03006 c -0.427002,-0.38963 -0.593598,-0.91209 -0.710289,-1.71347 0.356827,0.34094 0.663757,0.96079 0.710289,1.71347 z"
   id="path93" />
<path
   fill="#f1f1f2"
   opacity="1"
   stroke="none"
   d="m 156.45993,54.287227 c 0.7018,0.0616 1.42972,0.48873 2.24263,1.26219 -0.68217,-0.068 -1.44932,-0.48232 -2.24263,-1.26219 z"
   id="path94" />
<path
   fill="#65678d"
   opacity="1"
   stroke="none"
   d="m 120.06665,196.75188 c 0.44402,0.0918 0.55062,0.2754 0.82131,0.73114 -0.57196,0.20558 -1.30802,0.13905 -2.29558,-0.20841 0.21127,-0.33094 0.67406,-0.38095 1.47427,-0.52273 z"
   id="path95" />
<path
   fill="#242240"
   opacity="1"
   stroke="none"
   d="m 134.13392,141.84587 c 0.76927,0.0834 1.18367,0.2773 1.8816,0.6642 -0.62834,3.74829 3.18624,9.01935 -3.80992,10.52741 -0.49686,-3.37142 -0.63988,-6.77599 -0.71182,-10.65311 0.80914,-0.45773 1.54721,-0.44292 2.64014,-0.5385 z"
   id="path96"
   style="fill:#b3b3d8;fill-opacity:1" />
<path
   fill="#dfa452"
   opacity="1"
   stroke="none"
   d="m 140.91196,154.3889 c -1.02215,0.69158 -2.34881,1.14403 -3.99469,1.45453 1.01724,-0.65919 2.35373,-1.17644 3.99469,-1.45453 z"
   id="path97" />
</svg>
