<?xml version="1.0" standalone="no"?>
<!DOCTYPE svg PUBLIC "-//W3C//DTD SVG 20010904//EN"
 "http://www.w3.org/TR/2001/REC-SVG-20010904/DTD/svg10.dtd">
<svg version="1.0" xmlns="http://www.w3.org/2000/svg"
 width="1024.000000pt" height="1024.000000pt" viewBox="0 0 1024.000000 1024.000000"
 preserveAspectRatio="xMidYMid meet">
<metadata>
Created by potrace 1.16, written by Peter Selinger 2001-2019
</metadata>
<g transform="translate(0.000000,1024.000000) scale(0.100000,-0.100000)"
fill="#000000" stroke="none">
<path d="M4849 9343 l-126 -4 -5 -160 c-4 -112 -9 -164 -18 -169 -7 -4 -35
-10 -64 -14 -171 -20 -520 -144 -637 -227 l-26 -18 -59 51 c-32 28 -91 83
-131 121 -65 64 -74 69 -90 56 -67 -53 -458 -399 -581 -514 l-23 -21 62 -75
c34 -41 78 -91 97 -112 27 -27 34 -41 27 -51 -6 -8 -50 -63 -98 -122 -114
-141 -173 -230 -251 -384 -93 -183 -154 -355 -201 -572 l-17 -77 -36 -6 c-21
-3 -61 -10 -91 -15 -30 -6 -77 -10 -105 -10 -28 0 -61 -3 -73 -6 l-23 -6 0
-437 0 -437 147 -13 c198 -17 202 -18 209 -50 46 -204 156 -461 284 -661 90
-141 166 -244 214 -289 42 -40 44 -51 15 -77 -12 -10 -58 -62 -101 -114 l-80
-95 63 -58 c35 -32 129 -113 209 -180 80 -67 185 -157 233 -202 49 -44 102
-88 118 -99 l31 -19 122 122 123 122 64 -35 c144 -78 434 -175 599 -200 l85
-12 5 -170 5 -169 415 -5 c271 -3 418 -2 422 5 4 6 8 80 8 166 l0 155 133 27
c72 14 193 45 267 67 129 40 327 125 361 155 14 14 22 8 80 -52 36 -38 86 -94
113 -125 l48 -58 32 23 c46 32 253 205 401 335 123 107 214 199 215 214 0 4
-35 44 -77 90 -43 46 -89 96 -102 110 l-24 27 74 79 c142 151 272 356 364 577
43 103 115 331 115 365 0 14 26 18 168 29 98 8 170 18 174 25 9 14 10 684 2
788 l-7 75 -96 12 c-53 7 -125 18 -161 24 l-65 12 -7 59 c-12 92 -63 271 -113
396 -81 202 -198 398 -348 585 -44 55 -85 106 -90 113 -8 10 4 28 45 70 30 31
76 83 103 115 41 49 46 60 34 71 -77 71 -169 151 -294 256 -82 69 -176 149
-209 179 -34 29 -76 65 -93 78 l-33 25 -129 -121 -130 -122 -53 35 c-112 74
-377 165 -584 201 l-102 18 -7 159 c-4 87 -10 160 -13 162 -11 6 -573 13 -713
9z m537 -325 c3 -73 7 -138 9 -144 2 -7 32 -15 67 -19 118 -12 243 -35 328
-61 164 -50 447 -170 526 -224 25 -16 51 -30 57 -30 7 0 62 47 122 104 l109
105 88 -84 c49 -47 132 -121 184 -165 52 -44 91 -80 86 -80 -13 0 -172 -180
-172 -196 0 -7 27 -46 60 -86 202 -245 280 -361 384 -573 89 -181 166 -438
182 -606 l7 -65 121 -13 c66 -6 133 -15 149 -18 l27 -5 0 -273 0 -272 -31 -7
c-17 -3 -84 -6 -148 -6 -64 0 -121 -4 -127 -8 -6 -4 -17 -51 -23 -105 -30
-259 -220 -675 -404 -885 -66 -76 -176 -210 -189 -232 -12 -18 -4 -29 82 -115
91 -92 94 -97 75 -111 -11 -8 -33 -27 -50 -42 -16 -15 -90 -79 -162 -141 -73
-62 -133 -117 -133 -121 0 -10 -163 153 -183 183 l-15 22 -44 -24 c-294 -161
-574 -252 -892 -291 -49 -6 -93 -13 -98 -16 -4 -3 -8 -68 -8 -145 l0 -139
-207 0 c-115 0 -218 -3 -230 -6 -22 -6 -22 -6 -25 147 l-3 154 -132 22 c-287
48 -480 111 -730 237 -62 31 -119 56 -127 56 -8 0 -59 -44 -113 -98 l-98 -97
-145 125 c-120 104 -169 144 -229 187 -3 2 26 36 65 76 38 40 80 84 93 99 l24
27 -55 68 c-92 114 -248 330 -300 416 -120 199 -213 437 -245 627 l-18 104
-85 12 c-47 7 -121 15 -165 19 l-80 7 3 272 3 273 145 13 c133 12 145 15 148
34 2 12 13 71 25 131 39 211 112 425 203 595 66 123 182 299 250 376 126 145
168 199 168 214 0 16 -134 192 -151 198 -5 2 -9 7 -9 12 0 4 65 65 145 135 79
70 158 142 174 160 l29 34 108 -110 c59 -60 115 -109 123 -109 9 0 36 14 61
31 170 115 525 243 748 269 179 21 158 9 166 97 3 42 6 108 6 147 l0 71 235
-2 236 -2 5 -133z"/>
<path d="M5034 8539 c-453 -24 -784 -150 -1119 -424 -496 -407 -774 -1039
-716 -1629 29 -297 136 -599 305 -859 273 -422 743 -745 1218 -838 254 -49
442 -59 645 -34 365 45 678 158 913 329 382 277 672 709 768 1146 55 246 64
395 37 625 -15 130 -66 341 -112 465 -79 213 -305 549 -469 699 -422 386 -888
551 -1470 520z m256 -446 c1 -148 0 -507 0 -799 l-1 -531 83 -6 c46 -4 363 -7
706 -7 l622 0 0 -67 c0 -74 12 -78 18 -6 2 26 8 55 12 64 5 9 12 53 16 97 7
78 8 81 33 84 14 2 -217 7 -514 12 -297 4 -592 11 -655 15 l-115 6 -6 600 c-3
330 -10 633 -14 673 -5 51 -4 72 4 72 6 0 11 -4 11 -10 0 -6 41 -9 103 -8 120
2 183 -15 344 -91 135 -65 218 -120 344 -228 316 -272 457 -495 573 -908 39
-136 56 -266 56 -415 l0 -135 -107 -2 c-630 -13 -1262 -14 -1505 -3 l-278 13
-2 96 c-1 53 -3 357 -3 676 0 319 -4 691 -9 828 l-9 247 147 0 146 0 0 -267z
m-467 -818 l2 -950 850 1 c468 0 920 2 1005 3 214 4 194 9 187 -47 -17 -145
-184 -517 -303 -675 -171 -228 -389 -406 -630 -518 -274 -127 -593 -184 -886
-159 -356 30 -596 104 -844 259 -126 79 -205 146 -329 280 -214 230 -360 472
-415 686 -38 149 -53 462 -29 618 33 222 146 516 271 707 42 63 93 142 114
175 49 74 214 247 285 298 189 133 299 188 475 236 172 47 224 68 225 94 1 13
5 5 11 -18 6 -25 11 -397 11 -990z"/>
<path d="M4360 7868 c-145 -5 -266 -10 -267 -11 -1 -2 -3 -535 -3 -1187 l-2
-1183 69 3 c135 8 2059 5 2099 -3 l42 -8 -1 268 c0 153 4 288 10 316 6 29 7
50 1 53 -5 3 -366 8 -802 11 l-794 6 -7 339 c-4 187 -4 575 0 863 8 522 7 523
-13 534 -11 6 -31 10 -44 9 -13 0 -142 -5 -288 -10z m153 -1052 c1 -475 5
-867 8 -870 3 -4 364 -6 801 -6 l796 0 4 -133 c3 -72 3 -135 2 -138 -5 -9
-1837 0 -1845 9 -6 5 -14 1709 -10 1952 l1 55 120 -2 120 -2 3 -865z"/>
<path d="M2473 4215 c-36 -16 -73 -68 -73 -103 0 -14 15 -39 34 -58 30 -30 40
-34 85 -34 62 0 112 19 135 51 18 26 21 81 6 110 -25 45 -121 63 -187 34z"/>
<path d="M7650 4223 c-8 -3 -30 -19 -47 -36 -41 -39 -45 -86 -9 -122 33 -33
68 -40 134 -25 159 35 142 192 -20 189 -24 0 -50 -3 -58 -6z"/>
<path d="M2250 3038 l0 -378 274 0 273 0 1 85 0 85 -189 0 -189 0 0 67 0 66
165 -6 165 -7 0 80 0 80 -159 0 -159 0 -4 70 -3 70 183 0 182 0 0 80 0 79
-270 3 -270 3 0 -377z"/>
<path d="M3141 3413 l-144 -4 7 -37 c3 -20 6 -188 6 -373 l0 -336 275 0 275
-1 0 84 0 84 -189 0 -189 0 -4 65 -3 65 158 0 158 0 -3 73 -3 72 -152 3 -153
3 0 69 0 70 103 0 c57 0 138 3 180 6 l77 7 0 77 0 78 -127 -1 c-71 -1 -193 -2
-272 -4z"/>
<path d="M3764 3296 c3 -66 6 -235 6 -378 l0 -258 288 0 288 0 0 85 -1 85
-200 0 -200 0 3 65 4 65 164 0 164 0 0 74 0 73 -52 7 c-29 3 -104 6 -165 6
l-113 0 0 60 c0 33 0 63 0 66 0 3 86 6 191 7 l191 2 1 80 2 80 -289 0 -289 0
7 -119z"/>
<path d="M4560 3040 l0 -380 94 0 95 0 6 53 c3 28 5 125 3 215 -2 137 -1 161
10 145 7 -10 45 -67 84 -128 38 -60 86 -129 105 -152 l34 -43 28 33 c84 96
180 224 202 267 13 27 28 50 32 50 5 0 5 -97 1 -215 l-7 -215 91 0 92 0 2 370
3 370 -51 0 c-28 0 -72 3 -97 6 l-45 7 -30 -59 c-17 -33 -63 -105 -104 -161
-40 -56 -81 -117 -91 -134 l-18 -32 -66 94 c-37 52 -92 137 -123 189 l-57 95
-96 3 -97 3 0 -381z"/>
<path d="M5834 3411 c-2 -2 -4 -172 -4 -378 l0 -373 260 0 260 0 2 55 c1 30 2
69 2 87 l1 32 -177 -3 -178 -3 7 290 6 290 -87 4 c-48 2 -90 1 -92 -1z"/>
<path d="M6604 3413 l-81 -4 -7 -61 c-3 -33 -6 -202 -6 -374 l0 -313 90 -3 90
-3 0 383 c0 210 -1 381 -2 380 -2 -1 -40 -4 -84 -5z"/>
<path d="M6927 3398 c-9 -31 -9 -496 0 -631 l6 -107 84 0 83 0 2 93 c2 50 2
114 1 140 l-1 48 159 -3 159 -3 0 83 0 82 -160 0 -160 0 0 75 0 75 185 0 185
0 0 80 0 80 -247 0 c-137 0 -258 3 -269 6 -16 4 -23 0 -27 -18z"/>
<path d="M7580 3331 l0 -83 105 4 105 4 0 -298 0 -298 90 0 90 0 2 298 3 297
108 -4 108 -3 -3 83 -3 84 -302 0 -303 0 0 -84z"/>
<path d="M8474 3409 c-58 -17 -128 -71 -151 -119 -41 -80 -25 -199 33 -252 33
-29 137 -75 209 -92 39 -10 78 -25 88 -33 23 -22 22 -56 -4 -79 -42 -38 -199
-13 -259 41 -14 13 -22 7 -73 -53 -64 -76 -64 -75 28 -117 123 -55 280 -66
372 -26 55 24 126 92 143 137 27 70 -2 172 -63 218 -19 15 -87 45 -152 67
-170 58 -189 76 -145 132 39 49 127 44 210 -12 l44 -29 28 45 c16 24 40 55 54
68 l25 23 -47 28 c-76 44 -148 64 -233 63 -42 0 -90 -5 -107 -10z"/>
<path d="M1543 3035 l2 -375 266 0 266 0 -1 85 -1 85 -179 0 -178 0 3 143 c2
78 3 208 1 290 l-2 147 -89 0 -90 0 2 -375z"/>
<path d="M3348 2233 c-108 -3 -118 -5 -118 -22 0 -11 -3 -26 -6 -34 -4 -13 2
-14 35 -10 l40 5 11 -43 c6 -24 18 -64 25 -88 20 -59 19 -68 -6 -76 -14 -5
-19 -14 -17 -28 2 -18 10 -22 43 -22 36 0 42 4 60 37 l20 37 -28 80 c-16 44
-26 85 -22 90 3 6 26 11 51 11 44 0 44 0 44 35 0 19 -3 34 -7 33 -5 -1 -61 -4
-125 -5z"/>
<path d="M3685 2222 c-108 -51 -134 -163 -58 -253 77 -91 204 -74 269 36 29
51 30 83 4 135 -41 80 -139 117 -215 82z m135 -87 c38 -39 35 -98 -9 -137 -28
-25 -40 -29 -69 -24 -54 8 -92 51 -92 102 0 35 5 47 32 69 27 23 38 26 72 21
23 -4 52 -17 66 -31z"/>
<path d="M4110 2224 c-108 -47 -142 -150 -77 -236 35 -47 105 -88 150 -88 15
0 47 9 71 20 l43 19 6 68 c3 40 1 73 -5 81 -12 14 -86 16 -106 3 -25 -16 -10
-55 26 -66 56 -16 29 -55 -39 -55 -40 0 -109 65 -109 102 0 61 68 101 161 96
44 -2 54 0 57 14 5 25 -54 58 -103 58 -22 -1 -56 -8 -75 -16z"/>
<path d="M4846 2208 c-4 -18 -3 -90 0 -160 6 -113 9 -128 25 -128 9 0 24 -3
33 -6 13 -5 16 8 18 87 l3 93 68 -92 c59 -80 72 -92 98 -92 l29 0 0 99 c0 54
3 125 6 158 l7 61 -36 4 -36 4 -3 -100 -3 -99 -36 54 c-94 141 -159 185 -173
117z"/>
<path d="M5258 2088 c2 -84 5 -157 6 -163 2 -6 43 -9 104 -7 97 3 100 4 105
27 2 14 2 27 -1 30 -3 3 -36 5 -74 5 l-68 0 0 35 0 35 61 0 c60 0 60 0 57 28
-3 26 -5 27 -63 27 l-60 0 -3 32 -3 32 78 3 c77 3 78 3 81 31 l3 27 -100 0
c-54 0 -106 2 -113 5 -12 5 -13 -20 -10 -147z"/>
<path d="M4396 2188 c-11 -91 -25 -262 -21 -267 2 -4 42 -5 89 -3 83 3 86 4
86 27 0 22 -4 24 -62 27 l-63 3 -3 128 c-3 125 -16 168 -26 85z"/>
<path d="M4630 2070 l0 -160 35 0 35 0 0 123 c0 67 -3 139 -6 160 -6 33 -10
37 -35 37 l-29 0 0 -160z"/>
<path d="M5760 2070 l0 -160 35 0 35 0 0 65 0 65 48 0 c26 0 57 3 70 6 21 6
22 4 22 -63 l0 -70 30 -1 30 -1 0 160 0 159 -30 0 c-28 0 -29 -1 -32 -57 l-3
-58 -67 -3 -68 -3 -2 28 c-1 15 -1 43 1 61 2 30 0 32 -34 32 l-35 0 0 -160z"/>
<path d="M6176 2078 c4 -84 7 -154 8 -155 1 -1 50 -5 108 -9 l106 -7 -7 34 -7
34 -70 3 -70 3 4 29 c4 27 8 30 41 30 59 0 81 10 81 35 0 28 -17 35 -81 35
-48 0 -49 1 -49 30 l0 29 78 3 c76 3 77 3 80 31 l3 27 -116 0 -115 0 6 -152z"/>
<path d="M6520 2076 c0 -166 0 -166 55 -166 22 0 24 5 27 57 l3 56 33 -28 c18
-15 39 -40 48 -56 12 -24 21 -29 49 -29 19 0 35 3 35 6 0 3 -13 25 -30 49 -16
24 -30 48 -30 54 0 5 14 23 30 39 43 44 42 92 -4 138 -34 34 -35 34 -125 34
l-91 0 0 -154z"/>
<path d="M6900 2075 l0 -155 38 0 c22 0 74 -3 116 -7 l77 -6 -3 34 -3 34 -77
3 c-80 3 -87 7 -72 46 5 12 20 16 64 16 52 0 58 2 62 23 8 43 1 48 -68 41
l-64 -7 0 37 0 36 80 0 80 0 0 30 0 30 -115 0 -115 0 0 -155z"/>
<path d="M2122 2103 l-593 -3 3 -40 3 -40 650 -3 650 -2 3 41 c3 39 1 42 -29
48 -17 3 -46 5 -63 4 -17 -2 -298 -4 -624 -5z"/>
<path d="M7496 2068 c3 -18 7 -37 9 -43 1 -7 227 -9 656 -7 l654 2 1 40 1 40
-663 0 -663 0 5 -32z"/>
</g>
</svg>
