<?xml version="1.0" encoding="UTF-8" standalone="no"?>
<svg
   version="1.1"
   id="Layer_1"
   x="0px"
   y="0px"
   width="100%"
   viewBox="0 0 1542 340"
   enable-background="new 0 0 1542 340"
   xml:space="preserve"
   sodipodi:docname="Screenshot 2024-10-22 at 8.14.29 PM.svg"
   inkscape:version="1.3.1 (9b9bdc1480, 2023-11-25, custom)"
   xmlns:inkscape="http://www.inkscape.org/namespaces/inkscape"
   xmlns:sodipodi="http://sodipodi.sourceforge.net/DTD/sodipodi-0.dtd"
   xmlns="http://www.w3.org/2000/svg"
   xmlns:svg="http://www.w3.org/2000/svg"><defs
   id="defs97" /><sodipodi:namedview
   id="namedview97"
   pagecolor="#505050"
   bordercolor="#ffffff"
   borderopacity="1"
   inkscape:showpageshadow="0"
   inkscape:pageopacity="0"
   inkscape:pagecheckerboard="1"
   inkscape:deskcolor="#505050"
   inkscape:zoom="0.40582977"
   inkscape:cx="437.37551"
   inkscape:cy="199.59108"
   inkscape:window-width="1854"
   inkscape:window-height="1011"
   inkscape:window-x="66"
   inkscape:window-y="32"
   inkscape:window-maximized="1"
   inkscape:current-layer="Layer_1" />

<path
   fill="#29295D"
   opacity="1.000000"
   stroke="none"
   d=" M1203.000000,288.060425   C926.541077,288.060364 650.582092,288.024933 374.623199,288.171661   C361.717499,288.178528 349.793152,285.980011 338.739166,279.207214   C324.394897,270.418396 314.618530,258.254456 310.994720,241.670227   C309.876190,236.551392 309.216827,231.222610 309.208527,225.988571   C309.154572,191.996979 309.215302,158.003967 309.506714,124.013710   C309.617767,111.059433 315.400848,100.085373 323.486633,90.400482   C333.168182,78.804276 346.061371,72.348999 360.610138,69.228745   C364.448395,68.405548 368.579742,68.875191 372.576508,68.875061   C725.524048,68.863731 1078.471558,68.898285 1431.419067,68.772690   C1450.660767,68.765839 1466.682861,75.430336 1479.401245,89.437447   C1488.841797,99.834663 1494.540283,112.222893 1494.545654,126.670380   C1494.558960,161.998245 1495.045898,197.336456 1494.320068,232.649506   C1493.966187,249.863983 1485.216553,263.727661 1471.881470,274.580261   C1463.519165,281.385803 1453.830811,285.320984 1443.422363,287.634399   C1441.662476,288.025574 1439.786987,287.994843 1437.964966,287.995605   C1359.809937,288.028809 1281.655029,288.043488 1203.000000,288.060425  M1414.521973,74.259956   C1414.069824,74.463104 1413.617798,74.666252 1412.226318,74.728638   C1408.736694,74.786766 1405.247070,74.844902 1401.127563,74.508675   C1400.647461,74.400887 1400.167358,74.293098 1399.347290,73.946472   C1398.667480,74.026123 1397.987671,74.105774 1396.579590,74.242348   C1396.152832,74.467575 1395.726074,74.692795 1394.331665,74.783203   C1263.073730,74.771141 1131.815796,74.758728 1000.557861,74.755028   C999.730469,74.755005 998.903076,74.876137 997.429382,74.594315   C993.050110,73.147209 991.667603,75.665207 990.578918,79.324821   C972.227173,141.015167 953.790222,202.680130 935.393677,264.357117   C933.616211,270.316345 931.980591,276.317841 929.986328,283.329254   C932.872742,282.603516 934.578186,282.174713 937.267395,282.069275   C938.764648,282.109833 940.261902,282.185852 941.759155,282.185883   C1091.297974,282.191345 1240.836670,282.191772 1390.375488,282.181244   C1392.034790,282.181152 1393.694092,282.033478 1396.095337,282.256317   C1397.961670,282.158752 1399.827881,282.061188 1402.645752,282.143127   C1406.179321,282.091064 1409.712769,282.039032 1414.051636,282.258942   C1415.778320,282.189056 1417.504883,282.119141 1420.130005,282.195984   C1429.673096,281.148010 1439.535278,281.284088 1448.695801,278.815979   C1470.618408,272.909302 1489.537598,254.081619 1488.893799,226.523712   C1488.123657,193.559875 1488.669434,160.564240 1488.729614,127.582535   C1488.757935,112.049004 1482.475952,99.577202 1470.729492,89.714508   C1455.811157,77.188667 1438.249512,73.641060 1418.524170,74.419312   C1417.925903,74.347473 1417.327515,74.275627 1416.499878,73.965149   C1416.089355,74.042892 1415.678833,74.120636 1414.521973,74.259956  M710.607300,179.739319   C706.467285,167.803665 702.415161,155.835831 698.070068,143.975327   C697.557983,142.577377 695.469238,140.882660 694.057739,140.832428   C685.739014,140.536392 677.403748,140.643173 669.075745,140.745270   C668.101624,140.757217 666.321472,141.584213 666.327637,142.012985   C666.343689,143.123657 666.890991,144.918106 667.681641,145.211212   C672.018372,146.818863 672.532654,150.204956 672.525146,154.094330   C672.489136,172.751465 672.478882,191.408783 672.530457,210.065842   C672.541260,213.970871 671.996765,217.317307 667.771179,219.027924   C666.931641,219.367783 666.322998,221.036575 666.250916,222.134766   C666.222717,222.564896 667.953918,223.517746 668.898865,223.538239   C674.893066,223.668243 680.893066,223.671036 686.886902,223.531815   C687.797363,223.510666 689.492371,222.404617 689.431519,222.021988   C689.256226,220.920029 688.608643,219.385864 687.718018,218.992889   C683.872986,217.296356 682.992371,214.280914 682.982910,210.479019   C682.942200,194.154846 682.791626,177.830948 682.707642,161.506821   C682.704224,160.843811 682.970093,160.179428 683.367676,158.300125   C684.549194,161.347443 685.294739,163.149887 685.951782,164.984039   C691.388916,180.161713 696.955383,195.295898 702.126770,210.563797   C703.330139,214.116760 705.286133,214.731293 708.416443,214.517319   C711.601685,214.299591 714.684509,215.280151 716.299683,210.617691   C720.922119,197.274521 726.195618,184.156464 731.242737,170.961166   C732.831665,166.806992 734.513794,162.688446 736.153320,158.553589   C736.773987,176.511749 736.802551,194.158478 736.749146,211.804932   C736.738831,215.222855 735.452759,217.889908 731.839417,219.107620   C731.065186,219.368546 730.192444,220.897614 730.295898,221.726273   C730.383972,222.432297 731.803894,223.493576 732.646057,223.504349   C742.413513,223.629181 752.183167,223.584122 763.370789,223.584122   C761.929260,221.285599 761.220825,220.080612 760.438965,218.925385   C758.964966,216.747696 756.184692,214.620529 756.146973,212.434372   C755.799072,192.288406 755.804077,172.132690 756.082458,151.984985   C756.112000,149.846802 758.518066,147.722870 759.878235,145.629105   C760.610779,144.501434 761.463562,143.451843 762.262085,142.367050   C761.045227,141.813507 759.838684,140.809082 758.609802,140.780991   C751.616760,140.621155 744.607605,140.924896 737.626038,140.598053   C733.707581,140.414642 732.181396,142.056595 730.940247,145.515991   C726.169678,158.812805 721.094055,172.000412 716.086365,185.211395   C715.684692,186.270889 714.934570,187.198303 713.906677,188.926361   C712.673096,185.403946 711.805359,182.926315 710.607300,179.739319  M913.188110,223.616791   C916.968811,224.221085 917.022766,221.874878 917.015015,219.095673   C916.955444,197.780472 917.000732,176.465012 916.970520,155.149689   C916.964600,151.003525 917.130066,147.129593 921.862488,145.231674   C922.668396,144.908463 923.198975,143.128159 923.219360,142.009384   C923.227112,141.583618 921.448364,140.761459 920.471008,140.741196   C914.645081,140.620499 908.814026,140.618164 902.988342,140.744614   C902.030396,140.765411 900.276917,141.663956 900.299500,142.080490   C900.359802,143.194305 900.931824,144.931305 901.750305,145.244308   C906.086060,146.902283 906.465027,150.380722 906.504211,154.209763   C906.635315,167.029984 906.823792,179.849609 906.951721,192.669861   C906.963806,193.887604 906.705444,195.108063 906.447266,197.478378   C905.101440,195.449707 904.361572,194.451340 903.742065,193.383163   C894.233459,176.987564 884.773621,160.563446 875.185486,144.214539   C874.355530,142.799316 872.740967,140.920044 871.424988,140.866180   C863.683228,140.549408 855.921936,140.710373 846.749634,140.710373   C848.221863,143.049988 848.706360,144.853378 849.784241,145.338760   C853.000183,146.786758 854.190674,149.108261 854.184998,152.433411   C854.151184,172.248795 854.283875,192.066299 853.966309,211.876785   C853.929565,214.167603 851.491882,216.440018 850.103577,218.681412   C849.277283,220.015503 848.326172,221.272263 846.711609,223.602081   C855.294128,223.602081 862.104797,223.664352 868.911438,223.526138   C869.799255,223.508133 871.258789,222.566666 871.387390,221.859177   C871.536316,221.039352 870.709412,219.419830 869.956360,219.159622   C865.124207,217.489929 864.754150,213.581894 864.720398,209.449631   C864.604858,195.295959 864.498962,181.142166 864.437134,166.988174   C864.432861,166.016663 864.821411,165.043442 865.182800,163.336624   C875.452148,180.684723 885.721130,197.005005 894.859619,213.935532   C898.969971,221.550674 903.673157,225.379181 913.188110,223.616791  M618.499878,223.622864   C628.832703,223.622604 639.166870,223.701889 649.496948,223.533691   C650.994080,223.509293 653.726440,222.361008 653.762878,221.627243   C654.096008,214.925247 653.958618,208.199890 653.958618,201.636047   C648.461243,199.874207 645.994263,202.185806 643.881897,207.214340   C642.439575,210.647919 639.040771,214.702087 635.743042,215.583099   C630.513550,216.980209 624.637024,215.955643 618.862366,215.955643   C618.862366,205.301941 618.862366,195.057602 618.862366,184.873474   C628.129211,183.126633 632.083008,183.891251 633.894104,188.823227   C635.556702,193.350800 638.240173,193.532867 642.184082,192.445404   C642.184082,184.335205 642.184082,176.319946 642.184082,167.222946   C639.346680,168.169815 636.203369,168.227036 635.213318,169.716034   C630.179077,177.287415 628.212830,178.303391 618.554871,176.074371   C618.554871,171.540054 618.554810,166.896149 618.554810,162.252243   C618.554810,146.163849 618.587952,145.937866 634.651123,148.287994   C637.610229,148.720917 640.351318,151.612869 642.853577,153.764542   C643.997375,154.748108 643.924622,157.371368 645.097229,158.046677   C647.148621,159.228088 649.709900,159.698883 652.114380,159.978638   C652.775757,160.055588 654.271851,158.422211 654.305786,157.532501   C654.512939,152.097107 654.409363,146.649841 654.409363,140.694962   C634.186890,140.694962 614.563721,140.678818 594.940918,140.754120   C594.158386,140.757111 592.665710,141.769058 592.725098,142.070206   C592.951538,143.218964 593.580994,144.332642 594.238586,145.343124   C595.752563,147.669418 598.696899,149.903427 598.739136,152.217239   C599.101013,172.042694 599.076233,191.879639 598.769165,211.706955   C598.733093,214.036530 596.318481,216.343750 594.958191,218.632568   C594.213074,219.886246 593.366638,221.079712 592.565979,222.300354   C593.877563,222.741013 595.182739,223.538681 596.501892,223.562653   C603.499268,223.689743 610.500183,223.622589 618.499878,223.622864  M547.676086,216.190460   C546.752136,215.507187 545.036072,214.838150 545.023499,214.138474   C544.847534,204.352753 544.904175,194.562836 544.904175,184.247742   C547.597656,184.247742 549.729248,184.291153 551.858398,184.238144   C555.582703,184.145432 559.043945,184.679779 560.233337,188.888428   C561.549011,193.543976 564.628723,193.531311 568.564209,192.430466   C568.564209,184.330627 568.564209,176.312805 568.564209,167.289429   C565.731323,168.158493 562.584045,168.137466 561.521973,169.615143   C555.979736,177.326279 554.327148,178.225388 544.872253,176.042755   C544.872253,171.374100 544.872314,166.577957 544.872314,161.781830   C544.872314,147.182861 544.868286,147.271606 559.531250,147.928940   C564.646118,148.158234 567.884705,150.521194 569.953003,155.057571   C572.679443,161.037415 573.461426,161.301025 580.438843,159.362930   C580.438843,153.345383 580.438843,147.288223 580.438843,141.379837   C579.775513,141.102264 579.472107,140.864914 579.167786,140.863708   C560.007019,140.788055 540.846191,140.703842 521.685608,140.749161   C520.642456,140.751633 519.601929,141.850784 518.560181,142.439468   C519.273804,143.446152 520.018372,144.432541 520.694824,145.463608   C522.223206,147.793335 524.984741,150.122696 525.026733,152.491501   C525.375183,172.149734 525.366882,191.819473 525.026184,211.478134   C524.983826,213.921844 522.401062,216.341705 520.928894,218.731644   C520.226196,219.872482 519.367554,220.917267 518.579529,222.005569   C519.656189,222.544937 520.730408,223.548813 521.809875,223.554504   C540.141357,223.651474 558.473755,223.670578 576.804443,223.516068   C577.960876,223.506317 580.018433,222.014084 580.105774,221.068268   C580.697449,214.662933 580.871460,208.219040 581.175354,201.895737   C573.209900,200.473312 573.209839,200.473282 570.596680,206.825867   C567.471863,214.421997 564.882202,216.164246 556.644714,216.195663   C553.978333,216.205826 551.311768,216.197342 547.676086,216.190460  M800.195618,164.474915   C800.196838,160.145538 799.937317,155.790512 800.358887,151.502411   C800.484863,150.221375 802.413086,148.263840 803.694153,148.110779   C807.469482,147.659760 811.334290,147.975601 815.164001,147.957932   C820.058350,147.935349 823.764282,150.186142 825.179077,154.728516   C826.972107,160.485031 830.565613,161.043930 835.625488,159.584686   C835.625488,153.352509 835.625488,147.176971 835.625488,140.734802   C815.871704,140.734802 796.565735,140.715683 777.260071,140.791931   C776.306885,140.795685 775.357056,141.631012 774.405640,142.079132   C775.080444,143.226883 775.712708,144.402405 776.439209,145.516449   C777.793640,147.593262 780.377563,149.617386 780.407349,151.692825   C780.699341,172.001266 780.658386,192.316849 780.414612,212.626816   C780.391357,214.556229 778.409180,216.500839 777.220703,218.364594   C776.362732,219.709946 775.312622,220.932739 774.348206,222.210175   C775.794861,222.678482 777.239380,223.546463 778.688477,223.554230   C796.172119,223.648163 813.656372,223.624329 831.140503,223.597794   C832.589172,223.595596 834.037537,223.350754 836.035583,223.168533   C836.035583,215.751984 836.035583,208.700058 836.035583,201.687256   C831.093323,200.423233 827.909729,200.958939 826.004578,206.600952   C824.811646,210.133636 821.468018,214.581009 818.251892,215.424484   C812.727844,216.873230 806.548950,215.825043 800.195618,215.825043   C800.195618,207.891846 800.195618,200.432663 800.195618,192.973495   C800.195618,183.745255 801.874817,182.152100 810.781006,184.636978   C813.086304,185.280182 814.462952,188.804291 816.625427,190.563507   C818.077209,191.744583 820.114685,192.406219 821.990540,192.746689   C822.573669,192.852524 824.124512,191.161011 824.146667,190.265518   C824.326233,182.999649 824.247437,175.727386 824.247437,167.027695   C821.001038,168.293793 817.811768,168.512192 816.826233,170.099152   C812.514221,177.042480 808.673767,178.679489 800.195679,175.792053   C800.195679,172.425903 800.195679,168.943130 800.195618,164.474915  M454.982574,200.486298   C454.956238,204.314545 455.371735,208.217453 454.742096,211.943771   C454.348022,214.275803 452.435638,216.376526 451.097656,218.514145   C450.317719,219.760193 449.326996,220.874313 448.431091,222.047791   C449.843658,222.567535 451.253571,223.530869 452.669220,223.539459   C469.813690,223.643402 486.959015,223.614761 504.104065,223.587418   C505.223053,223.585648 506.341614,223.312714 507.951416,223.101471   C508.360168,215.074585 508.760101,207.220566 509.143494,199.691757   C502.918488,197.688324 499.905243,199.324402 498.749023,205.052841   C497.738373,210.060059 495.542450,214.996460 489.754089,215.792465   C484.910706,216.458511 479.902954,215.929153 475.034332,215.929153   C474.790680,215.055466 474.546448,214.588196 474.546478,214.120911   C474.546906,193.647369 474.425934,173.171341 474.778900,152.703552   C474.820526,150.289139 477.457764,147.907791 478.930573,145.535172   C479.570038,144.505020 480.499237,143.602036 480.880890,142.497559   C480.991425,142.177689 479.665039,140.852966 478.988037,140.845581   C468.898987,140.735596 458.808380,140.769577 447.512299,140.769577   C448.756622,142.990219 449.138458,144.796875 450.085876,145.170883   C454.576111,146.943451 455.000977,150.505432 454.988098,154.547638   C454.940430,169.528595 454.977417,184.509842 454.982574,200.486298  M393.219116,206.499969   C393.219116,231.598877 393.219116,256.697784 393.219116,281.981812   C395.651733,281.981812 397.495758,281.981812 399.442627,281.981812   C399.523224,280.392792 399.632721,279.239868 399.632874,278.086914   C399.641083,211.802689 399.640503,145.518478 399.638031,79.234253   C399.638000,78.235435 399.953979,77.016907 399.498810,76.293152   C398.923431,75.378296 397.682953,74.286667 396.773590,74.324852   C395.589905,74.374557 393.905548,75.192474 393.428406,76.165932   C392.831726,77.383171 393.222260,79.094482 393.222107,80.592514   C393.218384,122.228333 393.219147,163.864151 393.219116,206.499969  M381.889740,117.500008   C381.889313,104.508522 381.913971,91.516960 381.872833,78.525604   C381.860870,74.748131 379.211304,72.674004 376.835480,74.681686   C375.776520,75.576538 375.578949,77.901360 375.577454,79.577705   C375.518524,145.534393 375.525665,211.491150 375.538452,277.447906   C375.538727,278.904236 375.704254,280.360596 375.806580,282.045654   C377.835449,282.045654 379.565979,282.045654 381.889648,282.045654   C381.889648,227.324814 381.889648,172.912415 381.889740,117.500008  M335.523956,97.971039   C336.641937,96.616493 337.759949,95.261955 338.877960,93.907417   C338.473877,93.583420 338.069794,93.259430 337.665710,92.935432   C335.784149,94.904976 333.902618,96.874519 332.021088,98.844063   C332.273987,99.141083 332.526886,99.438103 332.779785,99.735130   C333.532501,99.308868 334.285217,98.882599 335.523956,97.971039  M329.528381,102.639984   C329.475433,102.843613 329.422485,103.047234 329.369537,103.250854   C329.499237,103.119904 329.628967,102.988953 329.528381,102.639984  M343.413971,89.481575   C343.413971,89.481575 343.519623,89.419701 343.413971,89.481575  M341.485992,90.596817   C341.485992,90.596817 341.415802,90.480713 341.485992,90.596817  M340.584351,92.512840   C340.584351,92.512840 340.471436,92.579651 340.584351,92.512840  M331.478241,101.591728   C331.478241,101.591728 331.404877,101.472038 331.478241,101.591728  z"
   id="path2" />
<path
   fill="#313364"
   opacity="1.000000"
   stroke="none"
   d=" M271.010345,149.989059   C272.306244,150.510727 273.602142,151.032394 275.396240,151.910675   C276.646362,152.413345 277.398315,152.559387 278.150269,152.705444   C279.074341,152.939102 279.998444,153.172791 281.420959,153.787048   C282.688599,154.272217 283.457764,154.376831 284.226929,154.481430   C286.386932,155.773911 288.546906,157.066391 290.867432,159.059082   C291.378815,168.383026 291.604523,177.014435 292.132446,185.627304   C292.403320,190.046310 290.426575,192.443146 286.460175,193.782669   C282.372070,195.163269 278.342316,196.716675 274.287079,198.194519   C271.219147,199.312531 269.259003,201.041077 268.171051,204.529022   C266.055176,211.312500 262.922119,217.772659 260.584747,224.496872   C259.906799,226.447159 259.884308,229.085495 260.637482,230.980820   C262.411133,235.444214 264.885498,239.624771 266.974945,243.968567   C268.420288,246.973419 269.760925,250.058777 266.796082,253.242325   C264.287933,255.865082 262.107147,258.410736 259.648163,261.119354   C257.923401,262.862396 256.476807,264.442474 254.713348,266.128448   C252.270920,268.498688 250.145386,270.763062 247.581070,273.071106   C244.106049,272.551758 240.974731,272.285675 238.057327,271.351501   C234.308746,270.151154 230.731918,268.414429 226.989624,266.580322   C225.593506,266.122192 224.288879,265.992462 222.659241,265.902405   C221.578049,266.316681 220.821854,266.691315 219.699753,267.064331   C216.220398,268.741882 213.106949,270.421082 209.691040,272.149261   C208.645294,272.532684 207.902008,272.867126 206.807205,273.157776   C205.221725,273.960419 203.987762,274.806824 202.416916,275.696838   C201.409317,275.847412 200.738617,275.954407 199.684692,276.018982   C195.301224,276.339386 195.720078,279.547638 195.175797,282.568909   C193.774078,287.043274 192.103622,291.085266 191.310318,295.292664   C190.598434,299.068268 188.611710,300.319672 184.701141,300.152557   C178.726410,300.208282 173.226334,300.365234 167.483978,300.503632   C166.916718,300.476868 166.593979,300.499878 165.825378,300.395630   C163.824921,300.368896 162.272537,300.500702 160.309967,300.568512   C158.801407,300.544220 157.703049,300.583893 156.604706,300.623566   C154.713867,297.074768 152.760956,293.557037 150.960342,289.963043   C150.151077,288.347717 149.646194,286.579895 148.961700,284.152283   C147.839111,279.843750 145.671738,277.671814 141.919296,276.477081   C135.314163,274.374176 128.973526,271.436523 122.360207,269.365479   C119.963249,268.614807 116.825233,268.641815 114.512192,269.551636   C110.074226,271.297302 106.000679,273.959076 101.744484,276.180511   C98.583618,277.830261 95.817528,277.401978 93.173523,274.816742   C90.980263,272.672211 88.410179,270.913055 86.007034,268.983154   C82.687729,265.710297 79.404198,262.400055 76.038582,259.175537   C72.939438,256.206299 72.726410,252.892746 74.459229,249.164017   C76.489494,244.795227 78.685463,240.471893 80.260193,235.938034   C80.920280,234.037521 80.722900,231.423218 79.955254,229.520844   C77.658836,223.829849 74.717201,218.401199 72.364067,212.730438   C70.856186,209.096649 68.821732,206.633972 64.820763,205.529282   C60.363461,204.298584 56.047764,202.494797 51.763130,200.717056   C47.995892,199.153976 46.271057,196.043076 46.159412,192.025818   C45.937675,184.047302 45.408127,176.053589 45.754375,168.098755   C45.847313,165.963501 48.208488,163.117401 50.278725,162.041870   C54.973316,159.602936 60.224838,158.259674 65.057503,156.050079   C66.759354,155.271973 68.473404,153.506805 69.195984,151.779831   C72.011887,145.049759 74.183868,138.045334 77.110214,131.368607   C78.466667,128.273743 78.535698,125.832054 76.917786,122.953163   C74.475677,118.607719 72.270531,114.126373 70.047173,109.661697   C68.563980,106.683327 68.846100,104.010963 71.311562,101.471649   C76.640778,95.982826 81.922661,90.438080 86.993446,84.712135   C89.898689,81.431534 93.170586,80.474274 96.700073,82.843781   C107.370918,90.007614 117.842018,91.026001 128.400452,82.737015   C129.157700,82.142532 130.194901,81.707504 131.149490,81.592239   C139.910126,80.534348 142.649765,74.515366 144.590485,66.860855   C147.851410,53.999119 148.770660,53.802010 162.195114,54.362324   C167.002304,54.562973 171.845551,54.312199 176.652359,53.979034   C180.488312,53.713158 183.228302,55.254635 184.808365,58.511600   C186.980850,62.989689 188.453751,67.835472 190.898193,72.142433   C192.303513,74.618507 194.700211,77.030258 197.237488,78.265656   C203.198822,81.168205 209.452713,83.517853 215.719971,85.715485   C217.646301,86.390953 220.289505,86.520477 222.102112,85.737335   C227.284012,83.498482 232.207932,80.662529 237.968857,78.022659   C239.812607,77.967789 240.920837,77.951675 242.029053,77.935562   C244.786453,80.213928 247.543839,82.492302 250.607910,85.284882   C251.568695,86.242859 252.222763,86.686630 252.876846,87.130402   C256.442047,90.586128 260.007263,94.041862 263.808960,98.095284   C263.966980,100.757683 264.378754,102.998581 263.712585,104.852112   C262.093628,109.356926 260.184174,113.790810 257.981232,118.040474   C256.531982,120.836250 256.584808,123.083847 257.946899,125.912827   C261.173309,132.613800 263.877808,139.565384 267.075104,146.281525   C267.797119,147.798111 269.668213,148.767685 271.010345,149.989059  M56.733143,194.280823   C60.280220,195.545883 63.913700,196.615585 67.348412,198.134705   C70.370354,199.471283 73.169914,201.310623 75.936699,203.708725   C78.041367,209.265991 79.013039,215.696426 82.484192,220.200607   C89.943016,229.879181 87.746010,238.428116 82.334068,247.705215   C78.994064,253.430588 79.874458,255.217316 86.375572,259.566101   C89.267670,262.321899 92.265152,264.977203 95.018341,267.865387   C97.200310,270.154388 99.225769,270.566284 102.037834,268.881134   C105.739548,266.662872 109.796097,265.033325 113.478943,262.787964   C116.784416,260.772705 119.657471,260.487915 123.180923,262.461334   C127.363441,264.803864 131.755447,267.548065 136.341644,268.246185   C149.209976,270.204987 156.199158,277.481720 158.684540,289.835419   C159.417953,293.480835 162.067032,294.419922 165.400192,294.317993   C170.558289,294.160370 175.727249,293.824188 180.873901,294.022583   C184.026596,294.144135 185.335648,292.832581 186.131119,290.078156   C187.605911,284.971466 189.024368,279.821838 190.982712,274.895386   C191.713440,273.057068 193.622910,271.237823 195.451019,270.362549   C203.664261,266.430237 211.997925,262.736664 220.395157,259.211914   C222.144119,258.477783 224.587021,258.170837 226.295990,258.797119   C231.432495,260.679504 236.269485,263.393494 241.430710,265.185913   C243.105133,265.767426 246.012146,265.161285 247.331345,263.967163   C251.510910,260.183746 255.107895,255.765915 259.128235,251.793900   C261.368927,249.580154 261.803864,247.623535 260.195648,244.781982   C257.742828,240.448105 255.817474,235.818436 253.440262,231.438034   C251.938904,228.671555 252.297668,226.488113 253.548981,223.571014   C257.069977,215.362701 259.810394,206.822784 263.134521,198.524170   C263.836670,196.771332 265.431641,194.867630 267.103607,194.107254   C272.087646,191.840637 277.398193,190.294052 282.393127,188.048019   C283.807983,187.411819 285.412140,185.388901 285.493713,183.922104   C285.779327,178.784622 285.418762,173.612579 285.341339,168.453110   C285.281342,164.453445 283.539307,162.086761 279.478180,160.977829   C274.848907,159.713776 270.302795,158.013428 265.915314,156.064224   C264.282532,155.338821 262.711090,153.597778 261.949585,151.935928   C258.012238,143.343246 254.178116,134.692612 250.706665,125.904709   C249.861359,123.764809 249.872482,120.813545 250.613617,118.614014   C252.407791,113.289230 254.864288,108.187630 257.532715,102.638367   C257.010803,101.763420 256.488892,100.888466 255.534225,99.515839   C252.602692,96.754807 249.671158,93.993774 246.708130,90.539238   C240.542877,83.960350 240.202896,83.880180 232.469849,87.878563   C229.976410,89.167801 227.541565,90.571121 225.089035,91.938568   C221.432983,93.977058 218.185059,94.109154 213.978241,92.259468   C205.584351,88.568748 196.691360,86.013100 187.399460,82.647072   C184.588043,76.449905 181.776627,70.252731 179.075775,63.279728   C177.442001,62.259331 175.818649,60.390171 174.172577,60.369923   C168.039871,60.294476 161.882935,60.657284 155.775482,61.262756   C154.448288,61.394329 152.666168,62.974365 152.161301,64.295341   C150.205627,69.412300 148.883072,74.773209 146.884857,79.870842   C146.200790,81.615944 144.494446,83.411148 142.795517,84.231087   C134.591446,88.190559 126.301964,91.999115 117.876221,95.455147   C115.724693,96.337639 112.747780,96.406433 110.530731,95.682823   C105.813309,94.143135 101.315094,91.904587 96.787331,89.821419   C94.140076,88.603439 92.150002,89.044456 90.149345,91.210892   C86.312660,95.365509 82.056602,99.149750 78.423004,103.465263   C77.247536,104.861336 76.575554,107.802719 77.225868,109.408424   C79.337425,114.622093 82.335495,119.470261 84.621864,124.623474   C85.321518,126.200401 85.378059,128.505051 84.789314,130.137527   C81.594086,138.997284 78.239540,147.807327 74.608185,156.495880   C73.835175,158.345413 71.953003,160.196350 70.118355,161.046906   C65.306786,163.277588 60.151127,164.763901 55.328773,166.974762   C53.916763,167.622116 52.280399,169.690720 52.258453,171.130951   C52.159927,177.596283 52.448441,184.083313 52.996540,190.528549   C53.098961,191.732986 55.029396,192.781937 56.733143,194.280823  z"
   id="path3" />
<path
   fill="#9A9B9D"
   opacity="1.000000"
   stroke="none"
   d=" M267.123474,253.165222   C269.760925,250.058777 268.420288,246.973419 266.974945,243.968567   C264.885498,239.624771 262.411133,235.444214 260.637482,230.980820   C259.884308,229.085495 259.906799,226.447159 260.584747,224.496872   C262.922119,217.772659 266.055176,211.312500 268.171051,204.529022   C269.259003,201.041077 271.219147,199.312531 274.287079,198.194519   C278.342316,196.716675 282.372070,195.163269 286.460175,193.782669   C290.426575,192.443146 292.403320,190.046310 292.132446,185.627304   C291.604523,177.014435 291.378815,168.383026 291.075928,159.328949   C292.341248,160.903564 294.406036,162.822235 294.620575,164.929306   C295.326874,171.865372 295.384003,178.868866 295.649719,185.848038   C295.863831,191.472305 293.706696,195.967148 288.032196,197.233688   C276.340210,199.843353 269.500427,206.631439 267.667633,218.524780   C267.422760,220.113785 266.537415,221.672745 265.685883,223.087418   C262.457031,228.451614 263.415741,233.595932 266.266724,238.703476   C273.818115,252.231964 273.800140,252.216919 263.010895,263.368286   C260.237579,266.234650 257.582306,269.216644 254.910355,272.179352   C250.802292,276.734436 247.263840,277.527924 241.586639,275.066864   C240.364807,274.537201 239.132538,274.001404 237.988831,273.326538   C230.383392,268.838684 222.952530,268.716370 215.596649,273.952454   C214.259598,274.904205 212.682968,275.800446 211.102539,276.083313   C201.319580,277.834259 197.823578,284.813324 195.770050,293.469360   C193.890717,301.391235 191.662262,303.253998 183.492477,303.947235   C176.875153,304.508698 170.191589,304.726135 163.561874,304.467896   C161.246185,304.377747 159.003571,302.411682 156.666138,300.962921   C157.703049,300.583893 158.801407,300.544220 160.493103,300.831665   C162.815460,300.957245 164.544449,300.755707 166.273453,300.554169   C166.593979,300.499878 166.916718,300.476868 167.673889,300.838684   C172.762634,301.451233 177.417725,301.820160 182.076965,301.883301   C183.102356,301.897186 184.142471,300.825562 185.175812,300.253784   C188.611710,300.319672 190.598434,299.068268 191.310318,295.292664   C192.103622,291.085266 193.774078,287.043274 195.486206,282.471802   C197.295746,280.030060 198.681808,278.045715 200.067886,276.061401   C200.738617,275.954407 201.409317,275.847412 202.770905,275.810791   C204.694077,274.987915 205.926407,274.094727 207.158737,273.201569   C207.902008,272.867126 208.645294,272.532684 209.922974,272.396484   C213.660141,270.751801 216.862900,268.908875 220.065659,267.065948   C220.821854,266.691315 221.578049,266.316681 222.858780,266.224548   C224.615906,266.640900 225.848511,266.774811 227.081100,266.908752   C230.731918,268.414429 234.308746,270.151154 238.057327,271.351501   C240.974731,272.285675 244.106049,272.551758 247.947952,273.077759   C252.285553,271.988983 254.795441,270.023102 255.030212,266.022552   C256.476807,264.442474 257.923401,262.862396 260.004395,261.119843   C262.800354,258.359985 264.961914,255.762604 267.123474,253.165222  z"
   id="path4" />
<path
   fill="#878991"
   opacity="1.000000"
   stroke="none"
   d=" M86.025291,269.324127   C88.410179,270.913055 90.980263,272.672211 93.173523,274.816742   C95.817528,277.401978 98.583618,277.830261 101.744484,276.180511   C106.000679,273.959076 110.074226,271.297302 114.512192,269.551636   C116.825233,268.641815 119.963249,268.614807 122.360207,269.365479   C128.973526,271.436523 135.314163,274.374176 141.919296,276.477081   C145.671738,277.671814 147.839111,279.843750 148.874115,283.786469   C144.801163,282.112000 140.623474,280.323059 136.776016,277.989594   C125.650291,271.242004 115.022720,271.746216 104.519089,279.365295   C101.670006,281.431976 98.453140,281.121948 95.784531,278.786560   C92.438957,275.858704 89.281944,272.715424 86.025291,269.324127  z"
   id="path5" />
<path
   fill="#A7A8AB"
   opacity="1.000000"
   stroke="none"
   d=" M270.987366,149.615173   C269.668213,148.767685 267.797119,147.798111 267.075104,146.281525   C263.877808,139.565384 261.173309,132.613800 257.946899,125.912827   C256.584808,123.083847 256.531982,120.836250 257.981232,118.040474   C260.184174,113.790810 262.093628,109.356926 263.712585,104.852112   C264.378754,102.998581 263.966980,100.757683 264.054993,98.320267   C268.079681,100.296242 269.108826,103.996750 266.863617,107.648865   C259.984863,118.837997 259.682495,129.576431 267.370331,140.518555   C269.133942,143.028732 269.795593,146.313156 270.987366,149.615173  z"
   id="path6" />
<path
   fill="#A7A8AB"
   opacity="1.000000"
   stroke="none"
   d=" M241.948090,77.629303   C240.920837,77.951675 239.812607,77.967789 238.298340,77.890694   C239.217239,77.639336 240.542175,77.481194 241.948090,77.629303  z"
   id="path7" />
<path
   fill="#A7A8AB"
   opacity="1.000000"
   stroke="none"
   d=" M252.870148,86.795410   C252.222763,86.686630 251.568695,86.242859 250.865646,85.489906   C251.498932,85.607285 252.181198,86.033852 252.870148,86.795410  z"
   id="path8" />
<path
   fill="#A7A8AB"
   opacity="1.000000"
   stroke="none"
   d=" M284.063965,154.209625   C283.457764,154.376831 282.688599,154.272217 281.758331,153.904892   C282.365143,153.740738 283.133057,153.839279 284.063965,154.209625  z"
   id="path9" />
<path
   fill="#A7A8AB"
   opacity="1.000000"
   stroke="none"
   d=" M278.032654,152.395584   C277.398315,152.559387 276.646362,152.413345 275.733215,152.007629   C276.353058,151.860535 277.134064,151.973129 278.032654,152.395584  z"
   id="path10" />
<path
   fill="#EAA444"
   opacity="1.000000"
   stroke="none"
   d=" M1395.353394,281.954651   C1393.694092,282.033478 1392.034790,282.181152 1390.375488,282.181244   C1240.836670,282.191772 1091.297974,282.191345 941.759155,282.185883   C940.261902,282.185852 938.764648,282.109833 936.866699,281.505341   C936.796692,279.486206 937.038696,278.004059 937.471069,276.579773   C947.110962,244.824783 956.797302,213.083908 966.420349,181.323822   C973.539185,157.828659 980.617310,134.320999 987.640869,110.797218   C991.202148,98.869812 994.602539,86.894402 998.075684,74.940697   C998.903076,74.876137 999.730469,74.755005 1000.557861,74.755028   C1131.815796,74.758728 1263.073730,74.771141 1394.807129,75.330406   C1395.266968,110.140976 1395.229980,144.404343 1395.241821,178.667709   C1395.253662,213.096695 1395.314209,247.525665 1395.353394,281.954651  M1304.341309,224.767761   C1305.340210,224.736710 1306.351562,224.795959 1307.336060,224.660477   C1316.294189,223.427780 1324.747803,221.093750 1329.917725,212.780777   C1336.661743,201.936752 1333.615234,187.764908 1322.571899,180.124557   C1316.161987,175.690018 1309.096680,172.212708 1302.582275,167.916443   C1298.058960,164.933258 1296.113647,160.414505 1297.349243,154.904388   C1298.402466,150.207047 1301.888794,147.919235 1306.197388,147.201752   C1311.484131,146.321411 1316.645996,146.926727 1320.043945,151.850647   C1321.347656,153.739624 1321.712280,156.445267 1323.302124,157.917847   C1324.723877,159.234573 1327.208618,159.639725 1329.292480,159.899063   C1330.240723,160.017059 1332.217407,158.860229 1332.253418,158.201096   C1332.516235,153.393295 1332.578247,148.553131 1332.251587,143.753952   C1332.191772,142.874146 1330.159790,141.639450 1328.885742,141.408371   C1318.192261,139.468658 1307.448242,138.169968 1296.720459,141.172104   C1288.033936,143.602982 1281.307861,148.209915 1279.103760,157.626968   C1276.994507,166.639694 1279.657471,174.255264 1286.639160,179.977585   C1290.968018,183.525436 1296.141724,186.027313 1300.836670,189.148315   C1304.548096,191.615479 1308.486572,193.923157 1311.638428,197.003479   C1315.478271,200.756180 1315.290771,205.885269 1313.650391,210.593811   C1311.948486,215.478943 1307.534668,216.888000 1302.822510,217.184357   C1294.964722,217.678558 1290.122437,214.811356 1287.509399,207.238342   C1286.051147,203.012100 1283.397949,202.608826 1279.868530,202.992371   C1275.385986,203.479492 1277.425171,206.982544 1277.187500,209.230911   C1276.874268,212.196030 1277.285156,215.232300 1277.062622,218.213943   C1276.857544,220.961411 1277.989990,222.237518 1280.592163,222.496262   C1288.195801,223.252274 1295.798828,224.013260 1304.341309,224.767761  M1177.841797,189.270325   C1177.840942,183.775513 1177.974121,178.274979 1177.739624,172.790131   C1177.684937,171.512161 1176.383301,169.245270 1175.649780,169.243057   C1173.791870,169.237442 1170.995728,169.691513 1170.223999,170.962540   C1165.431641,178.856262 1163.336426,179.914017 1153.944824,177.469635   C1153.944824,170.479202 1153.910889,163.354385 1153.953369,156.230026   C1154.006836,147.269165 1152.806396,148.258438 1162.263794,147.881897   C1170.044312,147.572159 1175.882324,149.312027 1178.621216,157.637360   C1179.092041,159.068634 1183.255127,159.589035 1185.779663,159.830948   C1186.424561,159.892731 1187.881226,157.328354 1188.001465,155.890015   C1188.319458,152.086868 1188.008545,148.236023 1188.144043,144.411102   C1188.240601,141.688416 1187.253296,140.455048 1184.426636,140.463425   C1166.610474,140.516174 1148.793945,140.463577 1130.978027,140.559738   C1129.843750,140.565842 1128.714600,141.529099 1127.583130,142.047058   C1128.290283,143.207458 1128.730835,144.964706 1129.752441,145.421112   C1133.444824,147.070557 1134.227905,149.980652 1134.222168,153.553558   C1134.191528,172.535431 1134.216309,191.517395 1134.190552,210.499283   C1134.185547,214.166946 1133.435913,217.394409 1129.463989,219.028717   C1128.555542,219.402527 1128.143311,220.982666 1127.502563,222.007584   C1128.573242,222.570267 1129.637207,223.605957 1130.715698,223.621262   C1139.871826,223.751404 1149.031250,223.748215 1158.187500,223.626526   C1159.276489,223.612045 1160.352905,222.646561 1161.435059,222.121857   C1160.662354,221.068771 1159.951294,219.962860 1159.103882,218.973831   C1157.468262,217.065140 1154.419312,215.300995 1154.303955,213.338959   C1153.780518,204.430862 1154.074951,195.474701 1154.074951,186.641327   C1164.068848,184.724228 1167.075317,185.690796 1169.271484,191.949753   C1170.369629,195.079346 1172.136963,196.138046 1175.231079,195.678116   C1178.878662,195.135941 1177.551392,192.301590 1177.841797,189.270325  M1242.761841,161.515045   C1242.761841,159.517334 1242.555908,157.492508 1242.814209,155.528793   C1243.137207,153.073517 1243.607300,148.686523 1244.423706,148.589691   C1247.714233,148.199493 1251.470215,148.466309 1254.446777,149.823105   C1256.490601,150.754684 1257.982910,153.701782 1258.937256,156.064819   C1261.679321,162.853989 1262.209473,163.259659 1269.754150,161.057434   C1269.754150,155.378693 1269.926392,149.567566 1269.608032,143.783463   C1269.544678,142.631699 1267.611328,140.635605 1266.527588,140.626892   C1244.055542,140.446075 1221.581421,140.464310 1199.108765,140.605453   C1198.095947,140.611816 1196.253906,142.111130 1196.219360,142.972015   C1195.969238,149.209351 1196.085083,155.461334 1196.085083,161.465439   C1202.144165,162.994186 1205.527588,161.966705 1207.047119,155.888077   C1208.532715,149.944183 1212.005981,148.218292 1218.222534,147.922043   C1221.831299,147.750076 1223.216187,148.860016 1223.180908,152.684021   C1223.007080,171.493698 1223.031372,190.305847 1223.106567,209.116653   C1223.125122,213.769745 1222.634644,217.785278 1217.194336,219.229355   C1216.458252,219.424744 1215.560547,221.019882 1215.679810,221.827927   C1215.785522,222.544952 1217.194580,223.587616 1218.039673,223.598495   C1227.859741,223.725052 1237.682373,223.725922 1247.502686,223.610153   C1248.353882,223.600128 1249.755737,222.631760 1249.889771,221.918304   C1250.045654,221.089874 1249.262695,219.393600 1248.579468,219.208069   C1243.075195,217.713730 1242.781860,213.461700 1242.781494,208.956512   C1242.780151,193.474716 1242.768921,177.992920 1242.761841,161.515045  M1051.111694,216.088623   C1048.280518,216.092300 1045.443604,215.983719 1042.619995,216.131653   C1039.875977,216.275391 1038.773193,215.286880 1038.789917,212.421234   C1038.903198,192.937012 1038.859863,173.451920 1038.954834,153.967529   C1038.972290,150.374466 1039.664551,147.032608 1043.639404,145.364441   C1044.566406,144.975372 1045.005127,143.422791 1045.668457,142.405563   C1044.625366,141.775177 1043.591675,140.616165 1042.537842,140.597626   C1033.714233,140.442429 1024.885986,140.436676 1016.061829,140.567566   C1015.016296,140.583084 1013.319336,141.533524 1013.129028,142.336258   C1012.919128,143.221497 1013.834290,144.977417 1014.720642,145.410904   C1018.019958,147.024536 1019.167664,149.509750 1019.153870,153.047073   C1019.078491,172.365143 1019.086792,191.683731 1019.132385,211.001968   C1019.140503,214.437851 1018.278992,217.110840 1014.947449,218.822891   C1013.960266,219.330246 1013.592957,221.043839 1012.941589,222.204681   C1014.031921,222.704102 1015.119995,223.633041 1016.212891,223.638718   C1033.699097,223.729874 1051.186157,223.657425 1068.672241,223.746429   C1071.737061,223.762024 1072.731323,222.514252 1072.781494,219.594742   C1072.875854,214.105515 1073.143677,208.612869 1073.557007,203.138077   C1073.783691,200.136688 1072.817993,198.906479 1069.700073,198.899948   C1066.517212,198.893280 1064.668335,199.423981 1063.713867,203.141144   C1062.144287,209.254532 1060.155029,215.634933 1051.111694,216.088623  M1087.767212,140.789001   C1086.245239,141.373932 1084.723145,141.958878 1083.201172,142.543808   C1083.743530,143.468262 1084.081909,144.932602 1084.862305,145.227692   C1089.234253,146.880722 1089.469238,150.374435 1089.458374,154.227158   C1089.405762,172.726685 1089.403809,191.226517 1089.456055,209.726028   C1089.467529,213.756668 1089.196289,217.409805 1084.619873,219.114670   C1083.898804,219.383331 1083.139282,221.048294 1083.332031,221.840408   C1083.516724,222.599594 1084.910034,223.567398 1085.783691,223.578949   C1094.948120,223.700272 1104.115601,223.697159 1113.279663,223.562103   C1114.136108,223.549469 1115.521362,222.506836 1115.672119,221.746445   C1115.827759,220.961121 1114.987671,219.421036 1114.215942,219.103500   C1110.357178,217.515549 1109.159180,214.429337 1109.150146,210.702057   C1109.104004,191.535919 1108.958374,172.366318 1109.328979,153.207214   C1109.378906,150.621201 1112.122192,148.071884 1113.671143,145.537888   C1114.304077,144.502548 1115.077637,143.553192 1115.787354,142.564804   C1114.594727,141.974426 1113.411865,140.896652 1112.208008,140.872726   C1104.377808,140.717026 1096.543213,140.790283 1087.767212,140.789001  z"
   id="path11" />
<path
   fill="#EAA444"
   opacity="1.000000"
   stroke="none"
   d=" M1419.337891,74.821732   C1438.249512,73.641060 1455.811157,77.188667 1470.729492,89.714508   C1482.475952,99.577202 1488.757935,112.049004 1488.729614,127.582535   C1488.669434,160.564240 1488.123657,193.559875 1488.893799,226.523712   C1489.537598,254.081619 1470.618408,272.909302 1448.695801,278.815979   C1439.535278,281.284088 1429.673096,281.148010 1419.677979,281.651917   C1419.245850,278.610779 1419.282715,276.113739 1419.283569,273.616669   C1419.303955,207.351685 1419.320557,141.086716 1419.337891,74.821732  z"
   id="path12" />
<path
   fill="#F5F5F8"
   opacity="1.000000"
   stroke="none"
   d=" M710.772461,180.094009   C711.805359,182.926315 712.673096,185.403946 713.906677,188.926361   C714.934570,187.198303 715.684692,186.270889 716.086365,185.211395   C721.094055,172.000412 726.169678,158.812805 730.940247,145.515991   C732.181396,142.056595 733.707581,140.414642 737.626038,140.598053   C744.607605,140.924896 751.616760,140.621155 758.609802,140.780991   C759.838684,140.809082 761.045227,141.813507 762.262085,142.367035   C761.463562,143.451843 760.610779,144.501434 759.878235,145.629105   C758.518066,147.722870 756.112000,149.846802 756.082458,151.984985   C755.804077,172.132690 755.799072,192.288406 756.146973,212.434372   C756.184692,214.620529 758.964966,216.747696 760.438965,218.925385   C761.220825,220.080612 761.929260,221.285599 763.370789,223.584122   C752.183167,223.584122 742.413513,223.629181 732.646057,223.504349   C731.803894,223.493576 730.383972,222.432297 730.295898,221.726273   C730.192444,220.897614 731.065186,219.368546 731.839417,219.107620   C735.452759,217.889908 736.738831,215.222855 736.749146,211.804932   C736.802551,194.158478 736.773987,176.511749 736.153320,158.553589   C734.513794,162.688446 732.831665,166.806992 731.242737,170.961166   C726.195618,184.156464 720.922119,197.274521 716.299683,210.617691   C714.684509,215.280151 711.601685,214.299591 708.416443,214.517319   C705.286133,214.731293 703.330139,214.116760 702.126770,210.563797   C696.955383,195.295898 691.388916,180.161713 685.951782,164.984039   C685.294739,163.149887 684.549194,161.347443 683.367676,158.300125   C682.970093,160.179428 682.704224,160.843811 682.707642,161.506821   C682.791626,177.830948 682.942200,194.154846 682.982910,210.479019   C682.992371,214.280914 683.872986,217.296356 687.718018,218.992889   C688.608643,219.385864 689.256226,220.920029 689.431519,222.021988   C689.492371,222.404617 687.797363,223.510666 686.886902,223.531815   C680.893066,223.671036 674.893066,223.668243 668.898865,223.538239   C667.953918,223.517746 666.222717,222.564896 666.250916,222.134766   C666.322998,221.036575 666.931641,219.367783 667.771179,219.027924   C671.996765,217.317307 672.541260,213.970871 672.530457,210.065842   C672.478882,191.408783 672.489136,172.751465 672.525146,154.094330   C672.532654,150.204956 672.018372,146.818863 667.681641,145.211212   C666.890991,144.918106 666.343689,143.123657 666.327637,142.012985   C666.321472,141.584213 668.101624,140.757217 669.075745,140.745270   C677.403748,140.643173 685.739014,140.536392 694.057739,140.832428   C695.469238,140.882660 697.557983,142.577377 698.070068,143.975327   C702.415161,155.835831 706.467285,167.803665 710.772461,180.094009  z"
   id="path13" />
<path
   fill="#F4F4F7"
   opacity="1.000000"
   stroke="none"
   d=" M912.728516,223.617844   C903.673157,225.379181 898.969971,221.550674 894.859619,213.935532   C885.721130,197.005005 875.452148,180.684723 865.182800,163.336624   C864.821411,165.043442 864.432861,166.016663 864.437134,166.988174   C864.498962,181.142166 864.604858,195.295959 864.720398,209.449631   C864.754150,213.581894 865.124207,217.489929 869.956360,219.159622   C870.709412,219.419830 871.536316,221.039352 871.387390,221.859177   C871.258789,222.566666 869.799255,223.508133 868.911438,223.526138   C862.104797,223.664352 855.294128,223.602081 846.711609,223.602081   C848.326172,221.272263 849.277283,220.015503 850.103577,218.681412   C851.491882,216.440018 853.929565,214.167603 853.966309,211.876785   C854.283875,192.066299 854.151184,172.248795 854.184998,152.433411   C854.190674,149.108261 853.000183,146.786758 849.784241,145.338760   C848.706360,144.853378 848.221863,143.049988 846.749634,140.710373   C855.921936,140.710373 863.683228,140.549408 871.424988,140.866180   C872.740967,140.920044 874.355530,142.799316 875.185486,144.214539   C884.773621,160.563446 894.233459,176.987564 903.742065,193.383163   C904.361572,194.451340 905.101440,195.449707 906.447266,197.478378   C906.705444,195.108063 906.963806,193.887604 906.951721,192.669861   C906.823792,179.849609 906.635315,167.029984 906.504211,154.209763   C906.465027,150.380722 906.086060,146.902283 901.750305,145.244308   C900.931824,144.931305 900.359802,143.194305 900.299500,142.080490   C900.276917,141.663956 902.030396,140.765411 902.988342,140.744614   C908.814026,140.618164 914.645081,140.620499 920.471008,140.741196   C921.448364,140.761459 923.227112,141.583618 923.219360,142.009384   C923.198975,143.128159 922.668396,144.908463 921.862488,145.231674   C917.130066,147.129593 916.964600,151.003525 916.970520,155.149689   C917.000732,176.465012 916.955444,197.780472 917.015015,219.095673   C917.022766,221.874878 916.968811,224.221085 912.728516,223.617844  z"
   id="path14" />
<path
   fill="#F4F4F6"
   opacity="1.000000"
   stroke="none"
   d=" M617.999878,223.622787   C610.500183,223.622589 603.499268,223.689743 596.501892,223.562653   C595.182739,223.538681 593.877563,222.741013 592.565979,222.300354   C593.366638,221.079712 594.213074,219.886246 594.958191,218.632568   C596.318481,216.343750 598.733093,214.036530 598.769165,211.706955   C599.076233,191.879639 599.101013,172.042694 598.739136,152.217239   C598.696899,149.903427 595.752563,147.669418 594.238586,145.343124   C593.580994,144.332642 592.951538,143.218964 592.725098,142.070206   C592.665710,141.769058 594.158386,140.757111 594.940918,140.754120   C614.563721,140.678818 634.186890,140.694962 654.409363,140.694962   C654.409363,146.649841 654.512939,152.097107 654.305786,157.532501   C654.271851,158.422211 652.775757,160.055588 652.114380,159.978638   C649.709900,159.698883 647.148621,159.228088 645.097229,158.046677   C643.924622,157.371368 643.997375,154.748108 642.853577,153.764542   C640.351318,151.612869 637.610229,148.720917 634.651123,148.287994   C618.587952,145.937866 618.554810,146.163849 618.554810,162.252243   C618.554810,166.896149 618.554871,171.540054 618.554871,176.074371   C628.212830,178.303391 630.179077,177.287415 635.213318,169.716034   C636.203369,168.227036 639.346680,168.169815 642.184082,167.222946   C642.184082,176.319946 642.184082,184.335205 642.184082,192.445404   C638.240173,193.532867 635.556702,193.350800 633.894104,188.823227   C632.083008,183.891251 628.129211,183.126633 618.862366,184.873474   C618.862366,195.057602 618.862366,205.301941 618.862366,215.955643   C624.637024,215.955643 630.513550,216.980209 635.743042,215.583099   C639.040771,214.702087 642.439575,210.647919 643.881897,207.214340   C645.994263,202.185806 648.461243,199.874207 653.958618,201.636047   C653.958618,208.199890 654.096008,214.925247 653.762878,221.627243   C653.726440,222.361008 650.994080,223.509293 649.496948,223.533691   C639.166870,223.701889 628.832703,223.622604 617.999878,223.622787  z"
   id="path15" />
<path
   fill="#F3F3F6"
   opacity="1.000000"
   stroke="none"
   d=" M548.160706,216.193909   C551.311768,216.197342 553.978333,216.205826 556.644714,216.195663   C564.882202,216.164246 567.471863,214.421997 570.596680,206.825867   C573.209839,200.473282 573.209900,200.473312 581.175354,201.895737   C580.871460,208.219040 580.697449,214.662933 580.105774,221.068268   C580.018433,222.014084 577.960876,223.506317 576.804443,223.516068   C558.473755,223.670578 540.141357,223.651474 521.809875,223.554504   C520.730408,223.548813 519.656189,222.544937 518.579529,222.005554   C519.367554,220.917267 520.226196,219.872482 520.928894,218.731644   C522.401062,216.341705 524.983826,213.921844 525.026184,211.478134   C525.366882,191.819473 525.375183,172.149734 525.026733,152.491501   C524.984741,150.122696 522.223206,147.793335 520.694824,145.463608   C520.018372,144.432541 519.273804,143.446152 518.560181,142.439453   C519.601929,141.850784 520.642456,140.751633 521.685608,140.749161   C540.846191,140.703842 560.007019,140.788055 579.167786,140.863708   C579.472107,140.864914 579.775513,141.102264 580.438843,141.379837   C580.438843,147.288223 580.438843,153.345383 580.438843,159.362930   C573.461426,161.301025 572.679443,161.037415 569.953003,155.057571   C567.884705,150.521194 564.646118,148.158234 559.531250,147.928940   C544.868286,147.271606 544.872314,147.182861 544.872314,161.781830   C544.872314,166.577957 544.872253,171.374100 544.872253,176.042755   C554.327148,178.225388 555.979736,177.326279 561.521973,169.615143   C562.584045,168.137466 565.731323,168.158493 568.564209,167.289429   C568.564209,176.312805 568.564209,184.330627 568.564209,192.430466   C564.628723,193.531311 561.549011,193.543976 560.233337,188.888428   C559.043945,184.679779 555.582703,184.145432 551.858398,184.238144   C549.729248,184.291153 547.597656,184.247742 544.904175,184.247742   C544.904175,194.562836 544.847534,204.352753 545.023499,214.138474   C545.036072,214.838150 546.752136,215.507187 548.160706,216.193909  z"
   id="path16" />
<path
   fill="#F5F5F8"
   opacity="1.000000"
   stroke="none"
   d=" M800.195679,164.967636   C800.195679,168.943130 800.195679,172.425903 800.195679,175.792053   C808.673767,178.679489 812.514221,177.042480 816.826233,170.099152   C817.811768,168.512192 821.001038,168.293793 824.247437,167.027695   C824.247437,175.727386 824.326233,182.999649 824.146667,190.265518   C824.124512,191.161011 822.573669,192.852524 821.990540,192.746689   C820.114685,192.406219 818.077209,191.744583 816.625427,190.563507   C814.462952,188.804291 813.086304,185.280182 810.781006,184.636978   C801.874817,182.152100 800.195618,183.745255 800.195618,192.973495   C800.195618,200.432663 800.195618,207.891846 800.195618,215.825043   C806.548950,215.825043 812.727844,216.873230 818.251892,215.424484   C821.468018,214.581009 824.811646,210.133636 826.004578,206.600952   C827.909729,200.958939 831.093323,200.423233 836.035583,201.687256   C836.035583,208.700058 836.035583,215.751984 836.035583,223.168533   C834.037537,223.350754 832.589172,223.595596 831.140503,223.597794   C813.656372,223.624329 796.172119,223.648163 778.688477,223.554230   C777.239380,223.546463 775.794861,222.678482 774.348206,222.210175   C775.312622,220.932739 776.362732,219.709946 777.220703,218.364594   C778.409180,216.500839 780.391357,214.556229 780.414612,212.626816   C780.658386,192.316849 780.699341,172.001266 780.407349,151.692825   C780.377563,149.617386 777.793640,147.593262 776.439209,145.516449   C775.712708,144.402405 775.080444,143.226883 774.405640,142.079132   C775.357056,141.631012 776.306885,140.795685 777.260071,140.791931   C796.565735,140.715683 815.871704,140.734802 835.625488,140.734802   C835.625488,147.176971 835.625488,153.352509 835.625488,159.584686   C830.565613,161.043930 826.972107,160.485031 825.179077,154.728516   C823.764282,150.186142 820.058350,147.935349 815.164001,147.957932   C811.334290,147.975601 807.469482,147.659760 803.694153,148.110779   C802.413086,148.263840 800.484863,150.221375 800.358887,151.502411   C799.937317,155.790512 800.196838,160.145538 800.195679,164.967636  z"
   id="path17" />
<path
   fill="#ECAB50"
   opacity="1.000000"
   stroke="none"
   d=" M1413.246338,281.987000   C1409.712769,282.039032 1406.179321,282.091064 1402.195557,281.584412   C1401.749390,212.318146 1401.753418,143.610596 1401.757446,74.903038   C1405.247070,74.844902 1408.736694,74.786766 1412.697998,75.280991   C1413.155884,110.109474 1413.121460,144.385620 1413.134277,178.661728   C1413.147217,213.103485 1413.207031,247.545227 1413.246338,281.987000  z"
   id="path18" />
<path
   fill="#F7F7F9"
   opacity="1.000000"
   stroke="none"
   d=" M454.982605,199.988632   C454.977417,184.509842 454.940430,169.528595 454.988098,154.547638   C455.000977,150.505432 454.576111,146.943451 450.085876,145.170883   C449.138458,144.796875 448.756622,142.990219 447.512299,140.769577   C458.808380,140.769577 468.898987,140.735596 478.988037,140.845581   C479.665039,140.852966 480.991425,142.177689 480.880890,142.497559   C480.499237,143.602036 479.570038,144.505020 478.930573,145.535172   C477.457764,147.907791 474.820526,150.289139 474.778900,152.703552   C474.425934,173.171341 474.546906,193.647369 474.546478,214.120911   C474.546448,214.588196 474.790680,215.055466 475.034332,215.929153   C479.902954,215.929153 484.910706,216.458511 489.754089,215.792465   C495.542450,214.996460 497.738373,210.060059 498.749023,205.052841   C499.905243,199.324402 502.918488,197.688324 509.143494,199.691757   C508.760101,207.220566 508.360168,215.074585 507.951416,223.101471   C506.341614,223.312714 505.223053,223.585648 504.104065,223.587418   C486.959015,223.614761 469.813690,223.643402 452.669220,223.539459   C451.253571,223.530869 449.843658,222.567535 448.431091,222.047791   C449.326996,220.874313 450.317719,219.760193 451.097656,218.514145   C452.435638,216.376526 454.348022,214.275803 454.742096,211.943771   C455.371735,208.217453 454.956238,204.314545 454.982605,199.988632  z"
   id="path19" />
<path
   fill="#E1E2E9"
   opacity="1.000000"
   stroke="none"
   d=" M393.219177,205.999969   C393.219147,163.864151 393.218384,122.228333 393.222107,80.592514   C393.222260,79.094482 392.831726,77.383171 393.428406,76.165932   C393.905548,75.192474 395.589905,74.374557 396.773590,74.324852   C397.682953,74.286667 398.923431,75.378296 399.498810,76.293152   C399.953979,77.016907 399.638000,78.235435 399.638031,79.234253   C399.640503,145.518478 399.641083,211.802689 399.632874,278.086914   C399.632721,279.239868 399.523224,280.392792 399.442627,281.981812   C397.495758,281.981812 395.651733,281.981812 393.219116,281.981812   C393.219116,256.697784 393.219116,231.598877 393.219177,205.999969  z"
   id="path20" />
<path
   fill="#EDEDF1"
   opacity="1.000000"
   stroke="none"
   d=" M381.889709,118.000015   C381.889648,172.912415 381.889648,227.324814 381.889648,282.045654   C379.565979,282.045654 377.835449,282.045654 375.806580,282.045654   C375.704254,280.360596 375.538727,278.904236 375.538452,277.447906   C375.525665,211.491150 375.518524,145.534393 375.577454,79.577705   C375.578949,77.901360 375.776520,75.576538 376.835480,74.681686   C379.211304,72.674004 381.860870,74.748131 381.872833,78.525604   C381.913971,91.516960 381.889313,104.508522 381.889709,118.000015  z"
   id="path21" />
<path
   fill="#FCF3E5"
   opacity="1.000000"
   stroke="none"
   d=" M1401.442505,74.705856   C1401.753418,143.610596 1401.749390,212.318146 1401.719727,281.494659   C1399.827881,282.061188 1397.961670,282.158752 1395.724365,282.105469   C1395.314209,247.525665 1395.253662,213.096695 1395.241821,178.667709   C1395.229980,144.404343 1395.266968,110.140976 1395.291016,75.397812   C1395.726074,74.692795 1396.152832,74.467575 1397.205322,74.409882   C1398.449707,74.446709 1399.068481,74.316010 1399.687256,74.185303   C1400.167358,74.293098 1400.647461,74.400887 1401.442505,74.705856  z"
   id="path22" />
<path
   fill="#EEEBEC"
   opacity="1.000000"
   stroke="none"
   d=" M997.752563,74.767509   C994.602539,86.894402 991.202148,98.869812 987.640869,110.797218   C980.617310,134.320999 973.539185,157.828659 966.420349,181.323822   C956.797302,213.083908 947.110962,244.824783 937.471069,276.579773   C937.038696,278.004059 936.796692,279.486206 936.374817,281.343658   C934.578186,282.174713 932.872742,282.603516 929.986328,283.329254   C931.980591,276.317841 933.616211,270.316345 935.393677,264.357117   C953.790222,202.680130 972.227173,141.015167 990.578918,79.324821   C991.667603,75.665207 993.050110,73.147209 997.752563,74.767509  z"
   id="path23" />
<path
   fill="#FDF7EE"
   opacity="1.000000"
   stroke="none"
   d=" M1413.648926,282.122955   C1413.207031,247.545227 1413.147217,213.103485 1413.134277,178.661728   C1413.121460,144.385620 1413.155884,110.109474 1413.167603,75.351379   C1413.617798,74.666252 1414.069824,74.463104 1415.113770,74.407249   C1416.046875,74.437637 1416.388062,74.320732 1416.729248,74.203812   C1417.327515,74.275627 1417.925903,74.347473 1418.931030,74.620522   C1419.320557,141.086716 1419.303955,207.351685 1419.283569,273.616669   C1419.282715,276.113739 1419.245850,278.610779 1419.228760,281.578552   C1417.504883,282.119141 1415.778320,282.189056 1413.648926,282.122955  z"
   id="path24" />
<path
   fill="#393A6A"
   opacity="1.000000"
   stroke="none"
   d=" M335.280945,98.213684   C334.285217,98.882599 333.532501,99.308868 332.779785,99.735130   C332.526886,99.438103 332.273987,99.141083 332.021088,98.844063   C333.902618,96.874519 335.784149,94.904976 337.665710,92.935432   C338.069794,93.259430 338.473877,93.583420 338.877960,93.907417   C337.759949,95.261955 336.641937,96.616493 335.280945,98.213684  z"
   id="path25" />
<path
   fill="#ECAB50"
   opacity="1.000000"
   stroke="none"
   d=" M1399.517334,74.065887   C1399.068481,74.316010 1398.449707,74.446709 1397.569336,74.381416   C1397.987671,74.105774 1398.667480,74.026123 1399.517334,74.065887  z"
   id="path26" />
<path
   fill="#ECAB50"
   opacity="1.000000"
   stroke="none"
   d=" M1416.614502,74.084488   C1416.388062,74.320732 1416.046875,74.437637 1415.487061,74.376465   C1415.678833,74.120636 1416.089355,74.042892 1416.614502,74.084488  z"
   id="path27" />
<path
   fill="#393A6A"
   opacity="1.000000"
   stroke="none"
   d=" M329.643555,102.748993   C329.628967,102.988953 329.499237,103.119904 329.369537,103.250854   C329.422485,103.047234 329.475433,102.843613 329.643555,102.748993  z"
   id="path28" />
<path
   fill="#393A6A"
   opacity="1.000000"
   stroke="none"
   d=" M343.466797,89.450638   C343.519623,89.419701 343.413971,89.481575 343.466797,89.450638  z"
   id="path29" />
<path
   fill="#393A6A"
   opacity="1.000000"
   stroke="none"
   d=" M341.450897,90.538765   C341.415802,90.480713 341.485992,90.596817 341.450897,90.538765  z"
   id="path30" />
<path
   fill="#393A6A"
   opacity="1.000000"
   stroke="none"
   d=" M340.527893,92.546249   C340.471436,92.579651 340.584351,92.512840 340.527893,92.546249  z"
   id="path31" />
<path
   fill="#393A6A"
   opacity="1.000000"
   stroke="none"
   d=" M331.441559,101.531883   C331.404877,101.472038 331.478241,101.591728 331.441559,101.531883  z"
   id="path32" />

<path
   fill="#8E8F93"
   opacity="1.000000"
   stroke="none"
   d=" M179.020477,63.667648   C173.804214,64.060204 168.642242,64.002998 163.482559,64.087494   C158.659760,64.166473 154.835373,66.101273 154.024002,71.188759   C152.194580,82.659386 146.000320,89.447731 134.445740,91.898773   C130.353531,92.766830 126.527306,95.374741 122.862686,97.645187   C118.618843,100.274490 114.519691,100.514229 110.102394,98.411591   C107.250053,97.053886 104.217117,96.034393 101.481705,94.481750   C97.240730,92.074554 93.908531,93.066032 90.867699,96.502129   C88.333847,99.365341 85.780807,102.217735 83.112259,104.953987   C80.072334,108.071037 79.674126,111.892563 82.050026,114.974129   C89.700897,124.897354 88.869812,134.504227 82.673599,144.716644   C80.573936,148.177246 79.692924,152.462204 78.684921,156.478363   C77.466881,161.331284 74.514755,164.089081 69.938324,165.815582   C52.834400,172.268234 56.080784,169.390900 55.851562,186.496201   C55.822632,188.655228 56.017719,190.817230 56.112621,193.440247   C55.029396,192.781937 53.098961,191.732986 52.996540,190.528549   C52.448441,184.083313 52.159927,177.596283 52.258453,171.130951   C52.280399,169.690720 53.916763,167.622116 55.328773,166.974762   C60.151127,164.763901 65.306786,163.277588 70.118355,161.046906   C71.953003,160.196350 73.835175,158.345413 74.608185,156.495880   C78.239540,147.807327 81.594086,138.997284 84.789314,130.137527   C85.378059,128.505051 85.321518,126.200401 84.621864,124.623474   C82.335495,119.470261 79.337425,114.622093 77.225868,109.408424   C76.575554,107.802719 77.247536,104.861336 78.423004,103.465263   C82.056602,99.149750 86.312660,95.365509 90.149345,91.210892   C92.150002,89.044456 94.140076,88.603439 96.787331,89.821419   C101.315094,91.904587 105.813309,94.143135 110.530731,95.682823   C112.747780,96.406433 115.724693,96.337639 117.876221,95.455147   C126.301964,91.999115 134.591446,88.190559 142.795517,84.231087   C144.494446,83.411148 146.200790,81.615944 146.884857,79.870842   C148.883072,74.773209 150.205627,69.412300 152.161301,64.295341   C152.666168,62.974365 154.448288,61.394329 155.775482,61.262756   C161.882935,60.657284 168.039871,60.294476 174.172577,60.369923   C175.818649,60.390171 177.442001,62.259331 179.020477,63.667648  z"
   id="path34" />
<path
   fill="#989A9E"
   opacity="1.000000"
   stroke="none"
   d=" M246.723877,90.885986   C241.786270,88.783798 237.077576,89.484604 232.721512,92.590134   C225.064560,98.048958 217.714478,97.574188 209.660355,92.921906   C204.738724,90.079025 198.813568,89.008453 193.425064,86.920097   C191.516479,86.180412 189.862396,84.783966 188.048325,83.337997   C196.691360,86.013100 205.584351,88.568748 213.978241,92.259468   C218.185059,94.109154 221.432983,93.977058 225.089035,91.938568   C227.541565,90.571121 229.976410,89.167801 232.469849,87.878563   C240.202896,83.880180 240.542877,83.960350 246.723877,90.885986  z"
   id="path35" />
<path
   fill="#93959A"
   opacity="1.000000"
   stroke="none"
   d=" M76.002190,203.318329   C77.392899,204.682632 79.056374,206.276138 79.983093,208.220734   C83.459602,215.515732 86.942505,222.828568 89.888657,230.344193   C90.929993,233.000610 91.138588,236.422211 90.480835,239.199203   C89.579292,243.005524 87.114914,246.424377 86.042343,250.213638   C85.333504,252.717896 85.892433,255.580978 85.899551,258.683319   C79.874458,255.217316 78.994064,253.430588 82.334068,247.705215   C87.746010,238.428116 89.943016,229.879181 82.484192,220.200607   C79.013039,215.696426 78.041367,209.265991 76.002190,203.318329  z"
   id="path36" />
<path
   fill="#6A6B77"
   opacity="1.000000"
   stroke="none"
   d=" M184.701141,300.152588   C184.142471,300.825562 183.102356,301.897186 182.076965,301.883301   C177.417725,301.820160 172.762634,301.451233 167.916168,300.857239   C173.226334,300.365234 178.726410,300.208282 184.701141,300.152588  z"
   id="path37" />
<path
   fill="#6A6B77"
   opacity="1.000000"
   stroke="none"
   d=" M219.699753,267.064331   C216.862900,268.908875 213.660141,270.751801 210.225449,272.347504   C213.106949,270.421082 216.220398,268.741882 219.699753,267.064331  z"
   id="path38" />
<path
   fill="#77797E"
   opacity="1.000000"
   stroke="none"
   d=" M266.796112,253.242340   C264.961914,255.762604 262.800354,258.359985 260.282593,260.956879   C262.107147,258.410736 264.287933,255.865082 266.796112,253.242340  z"
   id="path39" />
<path
   fill="#77797E"
   opacity="1.000000"
   stroke="none"
   d=" M254.713348,266.128448   C254.795441,270.023102 252.285553,271.988983 248.386719,273.034088   C250.145386,270.763062 252.270920,268.498688 254.713348,266.128448  z"
   id="path40" />
<path
   fill="#6A6B77"
   opacity="1.000000"
   stroke="none"
   d=" M199.684692,276.018951   C198.681808,278.045715 197.295746,280.030060 195.599274,282.111450   C195.720078,279.547638 195.301224,276.339386 199.684692,276.018951  z"
   id="path41" />
<path
   fill="#6A6B77"
   opacity="1.000000"
   stroke="none"
   d=" M165.825378,300.395630   C164.544449,300.755707 162.815460,300.957245 160.903320,300.895660   C162.272537,300.500702 163.824921,300.368896 165.825378,300.395630  z"
   id="path42" />
<path
   fill="#6A6B77"
   opacity="1.000000"
   stroke="none"
   d=" M206.807205,273.157776   C205.926407,274.094727 204.694077,274.987915 203.107788,275.767151   C203.987762,274.806824 205.221725,273.960419 206.807205,273.157776  z"
   id="path43" />
<path
   fill="#6A6B77"
   opacity="1.000000"
   stroke="none"
   d=" M226.989624,266.580322   C225.848511,266.774811 224.615906,266.640900 223.183777,266.184875   C224.288879,265.992462 225.593506,266.122192 226.989624,266.580322  z"
   id="path44" />
<path
   fill="#989A9E"
   opacity="1.000000"
   stroke="none"
   d=" M257.293274,102.817223   C256.667450,102.224098 256.281067,101.452110 255.930817,100.346817   C256.488892,100.888466 257.010803,101.763420 257.293274,102.817223  z"
   id="path45" />
<path
   fill="#2E2C59"
   opacity="1.000000"
   stroke="none"
   d=" M1303.871704,224.770035   C1295.798828,224.013260 1288.195801,223.252274 1280.592163,222.496262   C1277.989990,222.237518 1276.857544,220.961411 1277.062622,218.213943   C1277.285156,215.232300 1276.874268,212.196030 1277.187500,209.230911   C1277.425171,206.982544 1275.385986,203.479492 1279.868530,202.992371   C1283.397949,202.608826 1286.051147,203.012100 1287.509399,207.238342   C1290.122437,214.811356 1294.964722,217.678558 1302.822510,217.184357   C1307.534668,216.888000 1311.948486,215.478943 1313.650391,210.593811   C1315.290771,205.885269 1315.478271,200.756180 1311.638428,197.003479   C1308.486572,193.923157 1304.548096,191.615479 1300.836670,189.148315   C1296.141724,186.027313 1290.968018,183.525436 1286.639160,179.977585   C1279.657471,174.255264 1276.994507,166.639694 1279.103760,157.626968   C1281.307861,148.209915 1288.033936,143.602982 1296.720459,141.172104   C1307.448242,138.169968 1318.192261,139.468658 1328.885742,141.408371   C1330.159790,141.639450 1332.191772,142.874146 1332.251587,143.753952   C1332.578247,148.553131 1332.516235,153.393295 1332.253418,158.201096   C1332.217407,158.860229 1330.240723,160.017059 1329.292480,159.899063   C1327.208618,159.639725 1324.723877,159.234573 1323.302124,157.917847   C1321.712280,156.445267 1321.347656,153.739624 1320.043945,151.850647   C1316.645996,146.926727 1311.484131,146.321411 1306.197388,147.201752   C1301.888794,147.919235 1298.402466,150.207047 1297.349243,154.904388   C1296.113647,160.414505 1298.058960,164.933258 1302.582275,167.916443   C1309.096680,172.212708 1316.161987,175.690018 1322.571899,180.124557   C1333.615234,187.764908 1336.661743,201.936752 1329.917725,212.780777   C1324.747803,221.093750 1316.294189,223.427780 1307.336060,224.660477   C1306.351562,224.795959 1305.340210,224.736710 1303.871704,224.770035  z"
   id="path46" />
<path
   fill="#2F2C59"
   opacity="1.000000"
   stroke="none"
   d=" M1177.841553,189.736664   C1177.551392,192.301590 1178.878662,195.135941 1175.231079,195.678116   C1172.136963,196.138046 1170.369629,195.079346 1169.271484,191.949753   C1167.075317,185.690796 1164.068848,184.724228 1154.074951,186.641327   C1154.074951,195.474701 1153.780518,204.430862 1154.303955,213.338959   C1154.419312,215.300995 1157.468262,217.065140 1159.103882,218.973831   C1159.951294,219.962860 1160.662354,221.068771 1161.435059,222.121872   C1160.352905,222.646561 1159.276489,223.612045 1158.187500,223.626526   C1149.031250,223.748215 1139.871826,223.751404 1130.715698,223.621262   C1129.637207,223.605957 1128.573242,222.570267 1127.502563,222.007599   C1128.143311,220.982666 1128.555542,219.402527 1129.463989,219.028717   C1133.435913,217.394409 1134.185547,214.166946 1134.190552,210.499283   C1134.216309,191.517395 1134.191528,172.535431 1134.222168,153.553558   C1134.227905,149.980652 1133.444824,147.070557 1129.752441,145.421112   C1128.730835,144.964706 1128.290283,143.207458 1127.583130,142.047058   C1128.714600,141.529099 1129.843750,140.565842 1130.978027,140.559738   C1148.793945,140.463577 1166.610474,140.516174 1184.426636,140.463425   C1187.253296,140.455048 1188.240601,141.688416 1188.144043,144.411102   C1188.008545,148.236023 1188.319458,152.086868 1188.001465,155.890015   C1187.881226,157.328354 1186.424561,159.892731 1185.779663,159.830948   C1183.255127,159.589035 1179.092041,159.068634 1178.621216,157.637360   C1175.882324,149.312027 1170.044312,147.572159 1162.263794,147.881897   C1152.806396,148.258438 1154.006836,147.269165 1153.953369,156.230026   C1153.910889,163.354385 1153.944824,170.479202 1153.944824,177.469635   C1163.336426,179.914017 1165.431641,178.856262 1170.223999,170.962540   C1170.995728,169.691513 1173.791870,169.237442 1175.649780,169.243057   C1176.383301,169.245270 1177.684937,171.512161 1177.739624,172.790131   C1177.974121,178.274979 1177.840942,183.775513 1177.841553,189.736664  z"
   id="path47" />
<path
   fill="#2F2C59"
   opacity="1.000000"
   stroke="none"
   d=" M1242.761719,162.013092   C1242.768921,177.992920 1242.780151,193.474716 1242.781494,208.956512   C1242.781860,213.461700 1243.075195,217.713730 1248.579468,219.208069   C1249.262695,219.393600 1250.045654,221.089874 1249.889771,221.918304   C1249.755737,222.631760 1248.353882,223.600128 1247.502686,223.610153   C1237.682373,223.725922 1227.859741,223.725052 1218.039673,223.598495   C1217.194580,223.587616 1215.785522,222.544952 1215.679810,221.827927   C1215.560547,221.019882 1216.458252,219.424744 1217.194336,219.229355   C1222.634644,217.785278 1223.125122,213.769745 1223.106567,209.116653   C1223.031372,190.305847 1223.007080,171.493698 1223.180908,152.684021   C1223.216187,148.860016 1221.831299,147.750076 1218.222534,147.922043   C1212.005981,148.218292 1208.532715,149.944183 1207.047119,155.888077   C1205.527588,161.966705 1202.144165,162.994186 1196.085083,161.465439   C1196.085083,155.461334 1195.969238,149.209351 1196.219360,142.972015   C1196.253906,142.111130 1198.095947,140.611816 1199.108765,140.605453   C1221.581421,140.464310 1244.055542,140.446075 1266.527588,140.626892   C1267.611328,140.635605 1269.544678,142.631699 1269.608032,143.783463   C1269.926392,149.567566 1269.754150,155.378693 1269.754150,161.057434   C1262.209473,163.259659 1261.679321,162.853989 1258.937256,156.064819   C1257.982910,153.701782 1256.490601,150.754684 1254.446777,149.823105   C1251.470215,148.466309 1247.714233,148.199493 1244.423706,148.589691   C1243.607300,148.686523 1243.137207,153.073517 1242.814209,155.528793   C1242.555908,157.492508 1242.761841,159.517334 1242.761719,162.013092  z"
   id="path48" />
<path
   fill="#302D59"
   opacity="1.000000"
   stroke="none"
   d=" M1051.557861,216.077545   C1060.155029,215.634933 1062.144287,209.254532 1063.713867,203.141144   C1064.668335,199.423981 1066.517212,198.893280 1069.700073,198.899948   C1072.817993,198.906479 1073.783691,200.136688 1073.557007,203.138077   C1073.143677,208.612869 1072.875854,214.105515 1072.781494,219.594742   C1072.731323,222.514252 1071.737061,223.762024 1068.672241,223.746429   C1051.186157,223.657425 1033.699097,223.729874 1016.212891,223.638718   C1015.119995,223.633041 1014.031921,222.704102 1012.941589,222.204681   C1013.592957,221.043839 1013.960266,219.330246 1014.947449,218.822891   C1018.278992,217.110840 1019.140503,214.437851 1019.132385,211.001968   C1019.086792,191.683731 1019.078491,172.365143 1019.153870,153.047073   C1019.167664,149.509750 1018.019958,147.024536 1014.720642,145.410904   C1013.834290,144.977417 1012.919128,143.221497 1013.129028,142.336258   C1013.319336,141.533524 1015.016296,140.583084 1016.061829,140.567566   C1024.885986,140.436676 1033.714233,140.442429 1042.537842,140.597626   C1043.591675,140.616165 1044.625366,141.775177 1045.668457,142.405563   C1045.005127,143.422791 1044.566406,144.975372 1043.639404,145.364441   C1039.664551,147.032608 1038.972290,150.374466 1038.954834,153.967529   C1038.859863,173.451920 1038.903198,192.937012 1038.789917,212.421234   C1038.773193,215.286880 1039.875977,216.275391 1042.619995,216.131653   C1045.443604,215.983719 1048.280518,216.092300 1051.557861,216.077545  z"
   id="path49" />
<path
   fill="#2B2A5A"
   opacity="1.000000"
   stroke="none"
   d=" M1088.238525,140.788803   C1096.543213,140.790283 1104.377808,140.717026 1112.208008,140.872726   C1113.411865,140.896652 1114.594727,141.974426 1115.787354,142.564789   C1115.077637,143.553192 1114.304077,144.502548 1113.671143,145.537888   C1112.122192,148.071884 1109.378906,150.621201 1109.328979,153.207214   C1108.958374,172.366318 1109.104004,191.535919 1109.150146,210.702057   C1109.159180,214.429337 1110.357178,217.515549 1114.215942,219.103500   C1114.987671,219.421036 1115.827759,220.961121 1115.672119,221.746445   C1115.521362,222.506836 1114.136108,223.549469 1113.279663,223.562103   C1104.115601,223.697159 1094.948120,223.700272 1085.783691,223.578949   C1084.910034,223.567398 1083.516724,222.599594 1083.332031,221.840408   C1083.139282,221.048294 1083.898804,219.383331 1084.619873,219.114670   C1089.196289,217.409805 1089.467529,213.756668 1089.456055,209.726028   C1089.403809,191.226517 1089.405762,172.726685 1089.458374,154.227158   C1089.469238,150.374435 1089.234253,146.880722 1084.862305,145.227692   C1084.081909,144.932602 1083.743530,143.468262 1083.201172,142.543808   C1084.723145,141.958878 1086.245239,141.373932 1088.238525,140.788803  z"
   id="path50" />

<path
   fill="#63658B"
   opacity="1.000000"
   stroke="none"
   d=" M239.921906,199.996613   C245.082932,186.939545 245.235001,173.496826 243.330276,159.434647   C244.070450,158.998657 244.491501,158.999207 244.912567,158.999756   C248.903839,171.312561 247.990509,183.702271 244.446945,195.785583   C234.863235,228.465256 212.857742,247.783188 179.448257,253.466995   C166.209351,255.719269 152.915115,253.959274 140.287735,248.881592   C139.167923,248.431305 138.309021,247.332169 137.682159,246.257278   C141.124527,246.628357 144.204117,247.327164 147.304977,247.913452   C152.575958,248.910004 157.860336,249.835693 163.811493,251.148193   C165.219955,251.571732 165.956009,251.638260 167.006470,251.553970   C168.197830,251.192062 169.074799,250.980972 169.951752,250.769867   C173.396149,250.580902 176.840546,250.391953 180.964905,250.073959   C182.457047,249.699448 183.269257,249.453964 184.081467,249.208496   C184.819183,249.100967 185.556885,248.993423 186.971161,248.797058   C188.352768,248.284149 189.057816,247.860046 189.762848,247.435944   C202.790512,244.867172 213.350662,237.854141 222.381592,228.553040   C229.591690,221.127243 235.483627,212.661072 239.382690,202.259155   C239.763977,201.143784 239.842941,200.570206 239.921906,199.996613  z"
   id="path52" />
<path
   fill="#616289"
   opacity="1.000000"
   stroke="none"
   d=" M97.883049,200.045166   C98.489441,201.836899 99.095833,203.628647 99.847916,206.041382   C99.969009,207.113449 99.944405,207.564529 99.669571,208.129761   C98.934975,208.501022 98.450584,208.758102 97.966202,209.015167   C86.502396,185.019257 87.770264,161.343826 99.840210,137.983368   C101.047119,135.647491 102.683922,133.533737 104.805756,131.148926   C106.058212,131.005508 106.626099,131.030045 107.193985,131.054581   C103.326889,139.953278 99.423851,148.836700 95.631393,157.767090   C95.061943,159.108017 95.009804,160.668625 94.549118,162.775421   C94.299965,164.283997 94.220047,165.144730 94.140137,166.005478   C94.093674,172.367813 94.047211,178.730133 94.097412,185.818817   C94.360664,187.067627 94.527260,187.590088 94.693863,188.112564   C95.378418,191.168472 96.062981,194.224380 96.889511,197.931671   C97.315338,199.070435 97.599190,199.557800 97.883049,200.045166  z"
   id="path53" />
<path
   fill="#61638A"
   opacity="1.000000"
   stroke="none"
   d=" M191.994537,104.132095   C188.645706,103.263611 185.296875,102.395134 181.317810,101.378929   C180.123001,101.202644 179.558441,101.174080 178.993881,101.145508   C172.295258,101.075294 165.596634,101.005081 158.168945,101.001411   C156.921265,101.276054 156.402664,101.484161 155.884048,101.692253   C150.109985,103.316666 144.335907,104.941093 137.985718,106.779922   C136.937408,107.323463 136.465240,107.652596 135.993073,107.981728   C134.500580,108.271179 133.008072,108.560631 131.268570,108.441666   C131.673798,107.250458 132.166901,106.152847 133.001572,105.730957   C153.471420,95.384377 174.542068,94.194397 196.036667,102.075584   C197.507050,102.614723 201.261917,102.213295 199.937103,106.333328   C198.190628,106.032005 196.493347,105.430611 194.244080,104.563553   C193.126236,104.242622 192.560379,104.187363 191.994537,104.132095  z"
   id="path54" />
<path
   fill="#63658B"
   opacity="1.000000"
   stroke="none"
   d=" M245.004822,158.602112   C244.491501,158.999207 244.070450,158.998657 243.333527,158.996979   C238.055923,149.111618 233.713104,138.847794 227.951797,129.453949   C222.592789,120.716034 214.247025,114.653809 204.681335,109.534340   C203.529663,108.725624 202.801743,108.298470 202.073822,107.871323   C202.073822,107.871323 202.076660,107.934387 202.101273,107.910995   C205.021545,105.865036 207.560684,107.222198 210.026062,108.783737   C224.970337,118.249336 235.675659,131.234192 242.020874,147.738770   C243.321396,151.121582 244.085648,154.710556 245.004822,158.602112  z"
   id="path55" />
<path
   fill="#65678D"
   opacity="1.000000"
   stroke="none"
   d=" M98.001587,209.371643   C98.450584,208.758102 98.934975,208.501022 99.902374,208.295532   C100.876839,208.917099 101.368286,209.487076 101.859726,210.057068   C106.681717,216.779892 111.503708,223.502701 116.077057,230.711792   C115.519516,231.623657 115.210617,232.049255 114.901733,232.474869   C107.396179,226.289429 102.346153,218.283417 98.001587,209.371643  z"
   id="path56" />
<path
   fill="#68698E"
   opacity="1.000000"
   stroke="none"
   d=" M107.494728,130.921188   C106.626099,131.030045 106.058212,131.005508 105.061813,130.953461   C109.558594,125.440277 114.483887,119.954613 119.709015,114.718796   C120.023346,115.698273 120.037849,116.427895 120.052345,117.157524   C115.966713,121.700943 111.881088,126.244370 107.494728,130.921188  z"
   id="path57" />
<path
   fill="#63658B"
   opacity="1.000000"
   stroke="none"
   d=" M123.647156,238.213531   C128.762085,240.391190 133.494095,242.804031 138.117126,245.588562   C137.227173,246.191391 136.168167,246.869720 135.708633,246.583984   C131.501205,243.967575 127.397919,241.183731 123.647156,238.213531  z"
   id="path58" />
<path
   fill="#61638A"
   opacity="1.000000"
   stroke="none"
   d=" M130.702515,107.813950   C130.832565,108.887932 130.923447,110.163521 130.384155,110.542610   C128.230850,112.056213 125.881561,113.290985 123.315712,114.332642   C123.755127,112.811836 124.233757,111.279869 125.271805,110.436272   C126.758148,109.228340 128.653198,108.523300 130.702515,107.813950  z"
   id="path59" />
<path
   fill="#61638A"
   opacity="1.000000"
   stroke="none"
   d=" M120.430725,117.119530   C120.037849,116.427895 120.023346,115.698273 120.011063,114.604202   C120.860771,113.891853 121.708252,113.543938 122.797989,113.609589   C122.296524,115.042610 121.552811,116.062073 120.430725,117.119530  z"
   id="path60" />
<path
   fill="#63658B"
   opacity="1.000000"
   stroke="none"
   d=" M120.986771,234.672943   C122.089371,235.540421 123.191963,236.407898 124.156052,237.621384   C123.165092,237.989639 122.312637,238.011902 121.216705,237.276123   C120.977737,235.903030 120.982254,235.287979 120.986771,234.672943  z"
   id="path61" />
<path
   fill="#63658B"
   opacity="1.000000"
   stroke="none"
   d=" M115.770889,232.367401   C117.184669,232.376129 118.338333,232.782928 119.256096,233.575668   C117.850388,233.562912 116.680573,233.164200 115.770889,232.367401  z"
   id="path62" />
<path
   fill="#65678D"
   opacity="1.000000"
   stroke="none"
   d=" M120.922928,234.678162   C120.982254,235.287979 120.977737,235.903030 120.951523,236.980179   C120.111931,236.829956 119.294037,236.217606 119.038895,235.237823   C119.978317,234.812469 120.354980,234.754517 120.731644,234.696579   C120.731644,234.696579 120.859077,234.683380 120.922928,234.678162  z"
   id="path63" />
<path
   fill="#63658B"
   opacity="1.000000"
   stroke="none"
   d=" M120.563080,234.334915   C120.354980,234.754517 119.978317,234.812469 119.027481,234.839371   C118.466789,234.610992 118.480278,234.413635 118.764885,234.095901   C119.488846,233.974747 119.941673,233.973999 120.563080,234.334915  z"
   id="path64" />
<path
   fill="#63658B"
   opacity="1.000000"
   stroke="none"
   d=" M115.266945,232.539902   C115.210617,232.049255 115.519516,231.623657 116.205780,231.047394   C116.601875,231.131927 116.620613,231.367096 116.343147,231.796021   C115.908691,232.194839 115.770432,232.399887 115.266945,232.539902  z"
   id="path65" />
<path
   fill="#DFA452"
   opacity="1.000000"
   stroke="none"
   d=" M162.334229,218.004395   C162.325699,216.244522 162.317169,214.484650 162.122406,211.988998   C160.007187,210.342987 158.078217,209.432755 156.520248,208.301331   C161.201279,208.435471 162.925201,206.488052 162.310486,202.211700   C162.028763,200.251938 162.080124,198.244278 162.045837,195.889465   C162.150803,195.025116 162.190323,194.529648 162.229858,194.034164   C162.295486,190.365601 162.361130,186.697037 162.584930,182.222809   C162.678131,177.948181 162.613159,174.479233 162.548172,171.010269   C162.463470,165.993439 162.378769,160.976593 162.440033,155.251022   C162.519577,153.697067 162.453156,152.851868 162.386749,152.006653   C162.590042,150.036118 162.793335,148.065582 163.437637,145.627258   C164.916916,145.042709 165.955200,144.925934 166.993469,144.809158   C169.686234,144.924164 172.378998,145.039169 175.647064,145.413910   C176.530624,146.478989 176.838882,147.284348 177.108856,148.551071   C177.115326,164.628784 177.160095,180.245132 177.133789,196.334030   C177.205734,200.211151 177.348755,203.615723 177.390518,207.359924   C178.030823,209.491730 178.772385,211.283875 179.721344,213.355240   C180.953903,214.373077 181.979080,215.111710 183.004257,215.850327   C190.600800,215.985535 198.197357,216.120758 206.369598,216.537079   C208.142136,220.431152 211.188644,223.696030 209.038040,227.938904   C209.038040,227.938904 208.948334,227.949326 208.532104,228.024368   C201.853439,228.418961 195.588760,229.031677 189.329163,228.983582   C181.575424,228.923996 173.825912,228.316528 166.074570,227.945740   C164.941238,225.547043 163.807907,223.148331 162.658585,220.050262   C162.539795,218.902054 162.437012,218.453232 162.334229,218.004395  z"
   id="path66" />
<path
   fill="#313363"
   opacity="1.000000"
   stroke="none"
   d=" M161.980423,196.258347   C162.080124,198.244278 162.028763,200.251938 162.310486,202.211700   C162.925201,206.488052 161.201279,208.435471 156.036255,208.200684   C148.453278,207.906235 141.725311,207.491272 134.997360,207.076309   C134.273773,204.637329 132.927826,202.199509 132.923218,199.759171   C132.879013,176.312912 133.123428,152.866180 133.108109,129.419708   C133.105911,126.054970 133.668045,124.346214 137.489716,124.954536   C139.572830,125.286118 141.811249,124.677849 143.880508,125.047829   C145.198212,125.283424 146.334213,126.535255 147.720154,128.058273   C148.415359,132.538406 149.350159,136.286667 149.396576,140.045883   C149.574951,154.489792 149.467590,168.937241 149.468719,183.383362   C149.469696,195.965485 149.470825,195.965485 161.980423,196.258347  z"
   id="path67" />
<path
   fill="#F1F1F2"
   opacity="1.000000"
   stroke="none"
   d=" M162.045837,195.889465   C149.470825,195.965485 149.469696,195.965485 149.468719,183.383362   C149.467590,168.937241 149.574951,154.489792 149.396576,140.045883   C149.350159,136.286667 148.415359,132.538406 147.924500,128.393250   C152.858932,129.675964 151.852905,134.096985 151.903503,137.542557   C152.135010,153.308746 152.005325,169.080246 152.005508,184.849838   C152.005615,193.981537 152.005722,193.981537 161.750168,194.021988   C162.190323,194.529648 162.150803,195.025116 162.045837,195.889465  z"
   id="path68" />
<path
   fill="#363760"
   opacity="1.000000"
   stroke="none"
   d=" M179.513962,213.076035   C178.772385,211.283875 178.030823,209.491730 177.744354,207.326782   C184.841766,205.479080 181.027191,200.208023 182.356750,196.528137   C184.515686,196.287094 186.256943,196.170700 187.998184,196.054306   C188.798828,196.310455 189.599487,196.566605 190.714111,197.277588   C194.295761,206.802231 194.062836,207.407745 186.551971,208.338562   C184.911011,208.616653 183.574524,209.133896 181.913147,209.834702   C180.896820,211.037521 180.205383,212.056778 179.513962,213.076035  z"
   id="path69" />
<path
   fill="#A49E9A"
   opacity="1.000000"
   stroke="none"
   d=" M177.204865,195.861465   C177.160095,180.245132 177.115326,164.628784 177.316498,148.522430   C177.562439,148.032410 177.982788,148.004822 177.982788,148.004822   C178.043991,148.338455 178.208511,148.609314 178.727600,149.222946   C179.321457,150.084930 179.664062,150.541382 180.006653,150.997833   C180.069534,165.018097 180.132401,179.038361 180.216949,193.787201   C180.202026,194.905563 180.165405,195.295349 179.773926,195.795532   C178.681000,195.891113 177.942932,195.876297 177.204865,195.861465  z"
   id="path70" />
<path
   fill="#F1F1F2"
   opacity="1.000000"
   stroke="none"
   d=" M166.102890,228.312531   C173.825912,228.316528 181.575424,228.923996 189.329163,228.983582   C195.588760,229.031677 201.853439,228.418961 208.527359,228.069275   C206.190735,229.357956 203.498352,231.653381 200.684174,231.813934   C191.968765,232.311188 183.194351,232.260956 174.470535,231.843948   C171.646790,231.708984 168.908554,229.784973 166.102890,228.312531  z"
   id="path71" />
<path
   fill="#F1F1F2"
   opacity="1.000000"
   stroke="none"
   d=" M135.059814,207.422638   C141.725311,207.491272 148.453278,207.906235 155.665222,208.421844   C158.078217,209.432755 160.007187,210.342987 161.990753,211.625214   C157.063965,211.997879 152.066772,211.752197 147.105728,212.070160   C142.370346,212.373688 138.346909,211.354797 135.059814,207.422638  z"
   id="path72" />
<path
   fill="#F1F1F2"
   opacity="1.000000"
   stroke="none"
   d=" M186.856461,208.577698   C194.062836,207.407745 194.295761,206.802231 191.024414,197.342697   C192.674072,199.029282 195.412521,200.979782 195.671936,203.217651   C195.925293,205.403183 194.129089,208.399933 192.331421,210.071228   C190.847061,211.451263 187.944626,211.184006 185.869919,212.098831   C184.707932,212.611206 183.951401,214.043091 183.008209,215.455490   C181.979080,215.111710 180.953903,214.373077 179.721344,213.355240   C180.205383,212.056778 180.896820,211.037521 182.232376,209.976654   C184.203156,209.482590 185.529816,209.030136 186.856461,208.577698  z"
   id="path73" />
<path
   fill="#F1F1F2"
   opacity="1.000000"
   stroke="none"
   d=" M209.388229,227.903168   C211.188644,223.696030 208.142136,220.431152 206.815384,216.472412   C211.344513,218.903458 212.721375,224.198502 209.388229,227.903168  z"
   id="path74" />
<path
   fill="#F1F1F2"
   opacity="1.000000"
   stroke="none"
   d=" M162.231018,171.128662   C162.613159,174.479233 162.678131,177.948181 162.537231,181.770782   C162.192184,178.498642 162.053040,174.872849 162.231018,171.128662  z"
   id="path75" />
<path
   fill="#F1F1F2"
   opacity="1.000000"
   stroke="none"
   d=" M180.128784,195.685135   C180.165405,195.295349 180.202026,194.905563 180.341080,194.236908   C182.910690,194.402130 185.377869,194.846222 187.921616,195.672302   C186.256943,196.170700 184.515686,196.287094 182.073227,196.335083   C180.957596,196.072830 180.543198,195.878983 180.128784,195.685135  z"
   id="path76" />
<path
   fill="#F1F1F2"
   opacity="1.000000"
   stroke="none"
   d=" M166.915207,144.477600   C165.955200,144.925934 164.916916,145.042709 163.489319,145.202454   C163.576096,142.263245 164.972931,142.410629 166.915207,144.477600  z"
   id="path77" />
<path
   fill="#F1F1F2"
   opacity="1.000000"
   stroke="none"
   d=" M102.121307,209.878815   C101.368286,209.487076 100.876839,208.917099 100.152596,208.181351   C99.944405,207.564529 99.969009,207.113449 100.053787,206.328918   C100.870262,207.230484 101.626572,208.465515 102.121307,209.878815  z"
   id="path78" />
<path
   fill="#F1F1F2"
   opacity="1.000000"
   stroke="none"
   d=" M169.777008,250.584045   C169.074799,250.980972 168.197830,251.192062 166.842377,251.281860   C166.257278,250.976944 166.150681,250.793335 166.044098,250.609741   C167.230148,250.539246 168.416214,250.468735 169.777008,250.584045  z"
   id="path79" />
<path
   fill="#F1F1F2"
   opacity="1.000000"
   stroke="none"
   d=" M162.118958,152.108948   C162.453156,152.851868 162.519577,153.697067 162.390289,154.806122   C162.080109,154.117065 161.965637,153.164154 162.118958,152.108948  z"
   id="path80" />
<path
   fill="#F1F1F2"
   opacity="1.000000"
   stroke="none"
   d=" M183.903778,248.931015   C183.269257,249.453964 182.457047,249.699448 181.319138,249.890228   C181.904312,249.441528 182.815216,249.047531 183.903778,248.931015  z"
   id="path81" />
<path
   fill="#F1F1F2"
   opacity="1.000000"
   stroke="none"
   d=" M177.992661,147.649277   C177.982788,148.004822 177.562439,148.032410 177.354797,148.061050   C176.838882,147.284348 176.530624,146.478989 176.095306,145.377106   C176.646347,145.818268 177.324448,146.556000 177.992661,147.649277  z"
   id="path82" />
<path
   fill="#F1F1F2"
   opacity="1.000000"
   stroke="none"
   d=" M94.459930,165.945038   C94.220047,165.144730 94.299965,164.283997 94.596275,163.175934   C94.801689,163.913940 94.790710,164.899277 94.459930,165.945038  z"
   id="path83" />
<path
   fill="#F1F1F2"
   opacity="1.000000"
   stroke="none"
   d=" M189.414948,247.321167   C189.057816,247.860046 188.352768,248.284149 187.315659,248.649536   C187.678085,248.129349 188.372574,247.667877 189.414948,247.321167  z"
   id="path84" />
<path
   fill="#F1F1F2"
   opacity="1.000000"
   stroke="none"
   d=" M162.125000,218.079102   C162.437012,218.453232 162.539795,218.902054 162.497513,219.674057   C162.206894,219.382751 162.061340,218.768280 162.125000,218.079102  z"
   id="path85" />
<path
   fill="#F1F1F2"
   opacity="1.000000"
   stroke="none"
   d=" M156.023285,101.955429   C156.402664,101.484161 156.921265,101.276054 157.723816,101.124847   C157.392685,101.527351 156.777603,101.872971 156.023285,101.955429  z"
   id="path86" />
<path
   fill="#F1F1F2"
   opacity="1.000000"
   stroke="none"
   d=" M179.045746,101.445190   C179.558441,101.174080 180.123001,101.202644 180.917206,101.404305   C180.463776,101.633224 179.780685,101.689049 179.045746,101.445190  z"
   id="path87" />
<path
   fill="#F1F1F2"
   opacity="1.000000"
   stroke="none"
   d=" M239.626617,200.037933   C239.842941,200.570206 239.763977,201.143784 239.452820,201.901031   C239.257538,201.416214 239.294449,200.747726 239.626617,200.037933  z"
   id="path88" />
<path
   fill="#F1F1F2"
   opacity="1.000000"
   stroke="none"
   d=" M180.233337,150.820923   C179.664062,150.541382 179.321457,150.084930 178.943146,149.333008   C179.424973,149.573029 179.942490,150.108521 180.233337,150.820923  z"
   id="path89" />
<path
   fill="#F1F1F2"
   opacity="1.000000"
   stroke="none"
   d=" M98.123138,199.886871   C97.599190,199.557800 97.315338,199.070435 97.052200,198.289856   C97.503021,198.573959 97.933128,199.151260 98.123138,199.886871  z"
   id="path90" />
<path
   fill="#F1F1F2"
   opacity="1.000000"
   stroke="none"
   d=" M192.040909,104.427216   C192.560379,104.187363 193.126236,104.242622 193.901947,104.498703   C193.436966,104.707115 192.762131,104.714722 192.040909,104.427216  z"
   id="path91" />
<path
   fill="#F1F1F2"
   opacity="1.000000"
   stroke="none"
   d=" M136.161804,108.208458   C136.465240,107.652596 136.937408,107.323463 137.710968,107.015259   C137.451752,107.502518 136.891144,107.968849 136.161804,108.208458  z"
   id="path92" />
<path
   fill="#F1F1F2"
   opacity="1.000000"
   stroke="none"
   d=" M94.954262,187.979721   C94.527260,187.590088 94.360664,187.067627 94.243973,186.266251   C94.600800,186.607193 94.907730,187.227036 94.954262,187.979721  z"
   id="path93" />
<path
   fill="#F1F1F2"
   opacity="1.000000"
   stroke="none"
   d=" M202.099945,108.236893   C202.801743,108.298470 203.529663,108.725624 204.342575,109.499084   C203.660400,109.431076 202.893250,109.016762 202.099945,108.236893  z"
   id="path94" />
<path
   fill="#65678D"
   opacity="1.000000"
   stroke="none"
   d=" M165.706665,250.701538   C166.150681,250.793335 166.257278,250.976944 166.527969,251.432678   C165.956009,251.638260 165.219955,251.571732 164.232391,251.224274   C164.443665,250.893326 164.906448,250.843323 165.706665,250.701538  z"
   id="path95" />
<path
   fill="#242240"
   opacity="1.000000"
   stroke="none"
   d=" M179.773926,195.795532   C180.543198,195.878983 180.957596,196.072830 181.655533,196.459732   C181.027191,200.208023 184.841766,205.479080 177.845612,206.987137   C177.348755,203.615723 177.205734,200.211151 177.133789,196.334030   C177.942932,195.876297 178.681000,195.891113 179.773926,195.795532  z"
   id="path96" />
<path
   fill="#DFA452"
   opacity="1.000000"
   stroke="none"
   d=" M186.551971,208.338562   C185.529816,209.030136 184.203156,209.482590 182.557281,209.793091   C183.574524,209.133896 184.911011,208.616653 186.551971,208.338562  z"
   id="path97" />
</svg>
